<?xml version="1.0" encoding="utf-8"?>
<!-- Generator: Adobe Illustrator 23.0.2, SVG Export Plug-In . SVG Version: 6.00 Build 0)  -->
<svg version="1.1" id="Layer_1" xmlns="http://www.w3.org/2000/svg" xmlns:xlink="http://www.w3.org/1999/xlink" x="0px" y="0px"
	 viewBox="0 0 100 50" style="enable-background:new 0 0 100 50;" xml:space="preserve">
<style type="text/css">
	.Drop_x0020_Shadow{fill:none;}
	.Outer_x0020_Glow_x0020_5_x0020_pt{fill:none;}
	.Jive_GS{fill:#A6D0E4;}
	.st0{fill:#FFD1C3;}
	.st1{fill:#531C10;}
	.st2{fill:none;}
</style>
<g>
	<polygon class="st2" points="124.4,-8 125.3,-8 125.3,-8 124.4,-8 	"/>
	<g>
		<path class="st0" d="M97.7,30.5c-0.1-0.3-0.2-0.7-0.5-1l-8.7-11.3c-0.1-0.1-0.1-0.1-0.2-0.2l0.2-0.4c0.4-0.7,0.6-1.3,0.7-1.7
			c0.2-0.7,0.2-1.3,0-1.8c-0.1-0.3-0.3-0.6-0.7-0.9c-0.2-0.2-0.5-0.4-0.9-0.6c-6.1-3.4-12.3-6-18.6-7.8c-6.6-2-13-3.1-19.4-3.3
			C42.9,1.3,36.4,2.1,30,3.7c-6.6,1.7-12.8,4.4-18.5,8.1c-0.6,0.4-1.1,0.8-1.5,1.4c-0.3,0.5-0.5,1-0.5,1.5c0,0,0,0.1,0,0.1l0,0.1
			c0,0.2,0.1,0.4,0.1,0.6c0.1,0.5,0.8,2,1.9,4.6c-0.3,0.1-0.6,0.7-0.9,1l-7.3,5.5C3,27,2.6,27.4,2.4,27.9c-0.3,0.6-0.3,1.1-0.1,1.5
			c0.1,0.2,0.3,0.4,0.6,0.5c0.2,0.1,0.4,0.1,0.7,0.2L8.8,31c0.5,0.1,0.9,0.2,1.2,0.3c0.4,0.2,0.7,0.5,0.9,0.9
			c0.1,0.3,0.2,0.6,0.2,1.1c0,0.3-0.1,0.7-0.2,1.1l-2,10.7c-0.1,0.5-0.1,1,0,1.5c0.1,0.5,0.4,0.8,0.7,0.8c0.1,0,0.3-0.1,0.4-0.2
			c0,0,0.2-0.2,0.4-0.4c0.8-0.9,1.8-1.8,3.1-2.5c0.5-0.3,1.6-0.9,3.5-1.7c3.1-1.5,6.1-3.4,8.9-5.5c0.6-0.4,0,0.4,0,0
			c0-0.5-1.3-0.6-2.1-0.8c-1.8-0.6-4.1-1.4-6-1.8c3.9-3.7,10.7-7.8,15.7-9.6c4.8-1.8,9.8-2.6,15-2.4c4.9,0.1,9.8,1,14.9,2.8
			c4.7,1.6,12.5,5.3,17.2,8.2L73,34.8c-0.3,0-0.5,0.2-0.7,0.3c-0.2,0.2-0.3,0.4-0.3,0.7c0,0.2,0.2,0.4,0.5,0.6l15.9,11
			c0.6-5.4-0.5-10.8-1-16.2c2.2,0,5.5,0.1,10,0.2C97.7,31.2,97.8,31,97.7,30.5"/>
		<path class="st1" d="M99.5,31.6c-0.1-0.4-0.2-0.7-0.5-1l-9-12c-0.1-0.1-0.1-0.1-0.2-0.2l0.2-0.5c0.4-0.7,0.6-1.3,0.7-1.8
			c0.2-0.7,0.2-1.3,0-1.9c-0.1-0.4-0.4-0.7-0.7-0.9c-0.2-0.2-0.5-0.4-0.9-0.6c-6.3-3.6-12.8-6.3-19.2-8.3
			c-6.8-2.1-13.5-3.2-20.1-3.5c-6.9-0.3-13.7,0.5-20.2,2.3c-6.8,1.8-13.2,4.7-19.1,8.6c-0.7,0.4-1.2,0.9-1.5,1.4
			c-0.3,0.5-0.5,1-0.5,1.5c0,0,0,0.1,0,0.1l0,0.2c0,0.2,0.1,0.4,0.1,0.6c0.1,0.5,0.8,2.1,2,4.9c-0.3,0.1-0.7,0.3-1,0.5l-7.5,6.4
			c-0.5,0.4-0.9,0.9-1.1,1.4C0.7,29.4,0.7,30,1,30.4c0.1,0.2,0.3,0.4,0.6,0.5C1.7,31,2,31.1,2.3,31.2L7.6,32
			c0.5,0.1,0.9,0.2,1.2,0.4c0.4,0.2,0.7,0.5,0.9,0.9c0.1,0.3,0.2,0.7,0.2,1.1c0,0.3-0.1,0.7-0.2,1.2L7.7,47c-0.1,0.6-0.1,1.1,0,1.6
			c0.1,0.6,0.4,0.8,0.7,0.8c0.1,0,0.3-0.1,0.5-0.2C9,49.2,9.1,49,9.3,48.8c0.8-1,1.9-1.9,3.2-2.7c0.5-0.3,1.7-0.9,3.6-1.8
			c3.2-1.6,6.3-3.6,9.2-5.9c0.6-0.5,0.9-0.9,0.9-1.4c0-0.6-0.4-1-1.3-1.3c-1.8-0.6-3.7-1.1-5.7-1.6c4.1-3.9,8.7-6.8,13.9-8.8
			c5-1.9,10.1-2.7,15.5-2.6c5,0.1,10.2,1.1,15.4,3c4.9,1.7,9.7,4.1,14.6,7.2l-6.9,1.4c-0.3,0.1-0.5,0.2-0.7,0.3
			c-0.2,0.2-0.3,0.4-0.3,0.7c0,0.2,0.2,0.4,0.5,0.6l17.7,13.4c0.6-5.7,0.6-11.5,0.1-17.2c2.3,0.1,5.7,0.1,10.3,0.2
			C99.5,32.3,99.6,32,99.5,31.6 M76.3,35.7l-0.2-0.2c0.4-0.1,0.9-0.1,1.5-0.2c0.1,0,0.2,0,0.3,0c0.2,0.1,0.4,0.2,0.6,0.3
			c0.4,0.3,0.7,0.5,0.8,0.6c0.1,0.1,0.3,0.3,0.5,0.5c0.2,0.2,0.4,0.3,0.6,0.3c-0.6-0.8-1.2-1.4-2-1.8c1.1-0.2,1.9-0.3,2.4-0.4
			c0.3-0.1,1.7-2.5,4.2-7.4c1.3-2.5,2.5-4.9,3.7-7.4l7.9,10.4c-3.7-0.2-6.4-0.3-8.2-0.3c-0.6,0-0.9,0.1-1.1,0.3
			c-0.4,0.4-0.5,1.1-0.3,2.2c0.7,4.4,0.8,8.9,0.3,13.2c-4.4-3-8.7-6.4-13-10.1c0.3-0.1,0.8-0.1,1.4-0.2c0.4,0.4,0.8,0.7,1.1,0.9
			c0.3,0.2,0.5,0.3,0.6,0.4c0.1,0.1,0.2,0.2,0.4,0.4c0.2,0.2,0.5,0.4,0.9,0.6l0.6,0.3c0.5,0.3,0.9,0.5,1.3,0.6
			c0-0.1-0.1-0.2-0.2-0.2l-1.6-0.9c-0.4-0.3-0.7-0.5-0.8-0.5c-0.3-0.3-0.6-0.5-0.7-0.6C77,36.3,76.6,36,76.3,35.7 M80.8,32.2
			l-0.4-0.3c-5.2-3.4-10.4-6.1-15.6-8c-5.6-2-11.2-3.1-16.6-3.2c-5.8-0.1-11.3,0.9-16.6,3.1c-5.3,2.1-10,5.3-14.2,9.4
			c-0.1-0.2-0.2-0.3-0.2-0.3c0-0.1-0.1-0.3-0.2-0.8c-0.1-0.5-0.2-1-0.3-1.5c-0.1-0.3-0.2-0.8-0.5-1.4c-0.3-0.8-0.7-1.9-1.4-3.4
			l-4.2-9.4c-0.2-0.3-0.3-0.7-0.4-1c-0.1-0.3-0.2-0.5-0.2-0.6c-0.1-0.2-0.1-0.4-0.2-0.6c5.6-3.9,11.6-6.7,18.1-8.7
			c6.7-2,13.6-3,20.7-2.8c6.8,0.2,13.7,1.3,20.6,3.5c6.6,2,13.2,4.9,19.7,8.6c-0.7,2.2-2.2,5.8-4.7,10.6
			C82,29.8,80.9,32.1,80.8,32.2 M11.2,21.9c0.1,0.2,0.2,0.5,0.4,0.8c0.1,0.2,0.2,0.4,0.4,0.8c0.2,0.3,0.7,1.5,1.6,3.7
			c0.9,2.3,1.5,3.7,1.6,4.3c0.1,0.2,0.1,0.6,0.2,1.1l0.2,1.3c0.1,0.3,0.1,0.6,0.2,0.7c0.1,0.3,0.4,0.5,0.7,0.6c0.1,0,0.1,0,0.2,0.1
			c0.2,0.2,0.4,0.3,0.8,0.5c0.6,0.2,1.4,0.4,2.2,0.7l-0.2,0.1l-0.3,0.3c-0.2,0.1-0.3,0.2-0.4,0.2l-1.1,0.7c0,0.1,0.1,0.1,0.3,0.1
			c0.2-0.1,0.5-0.2,0.8-0.4l0.9-0.5c0-0.1,0.1-0.1,0.3-0.2c0.1-0.1,0.2-0.1,0.2-0.2c0.4,0.1,0.9,0.3,1.4,0.4
			c-0.3,0.2-0.8,0.4-1.4,0.8l-0.8,0.5c-0.3,0.2-0.5,0.3-0.7,0.4L18,39.2c-0.4,0.2-0.7,0.4-0.9,0.5c-0.2,0.1-0.6,0.4-1,0.7
			c0,0.1,0,0.1,0.1,0l0.4-0.2c0.4-0.3,0.7-0.4,0.7-0.4c0.1-0.1,0.3-0.1,0.5-0.2c0.1-0.1,0.3-0.2,0.6-0.4c0.2-0.2,0.5-0.4,0.9-0.6
			l1-0.6c0.4-0.2,0.7-0.4,0.9-0.5c0.1-0.1,0.3-0.1,0.5-0.2c0.1,0,0.1-0.1,0.2-0.1c0.4,0.1,0.7,0.2,1.1,0.3
			c-4.3,2.9-8.7,5.5-13.4,7.9l2-11.2c0.1-0.5,0.1-0.9,0.2-1.2c0-0.5-0.1-0.8-0.2-1.2c-0.2-0.3-0.4-0.6-0.7-0.8
			c-0.2-0.1-0.5-0.3-0.9-0.4c-2.3-0.8-4.6-1.3-6.9-1.5C5.9,26.8,8.6,24.4,11.2,21.9z"/>
		<g>
			<path id="SVGID_x5F_1_x5F_" class="st2" d="M16.2,27.2c0,0,27.3-24.1,58.3-3.3"/>
			<text>			<textPath  xlink:href="#SVGID_x5F_1_x5F_" startOffset="24.121%">
<tspan  class="st1" style="font-family:'LucidaHandwriting-Italic'; font-size:11.7989px;">Sugarfield</tspan>			</textPath>
</text>
		</g>
		<g>
			<path class="st1" d="M15.5,22.8c1.2-0.7,2.5-1.3,3.7-2c0.5-0.3,0.1-1.3-0.4-1c-1.2,0.7-2.5,1.3-3.7,2
				C14.5,22.1,14.9,23.1,15.5,22.8z"/>
			<path class="st1" d="M19.9,21.6c-1.6,0.7-3.2,1.5-4.7,2.4c-0.5,0.3-0.1,1.3,0.4,1c1.5-0.9,3.1-1.7,4.7-2.4
				C20.9,22.4,20.5,21.3,19.9,21.6z"/>
		</g>
		<g>
			<path class="st1" d="M80.1,22.1c-0.9-0.5-1.8-1-2.7-1.5c-0.5-0.3-1,0.7-0.5,1c0.9,0.5,1.8,1,2.7,1.5
				C80.2,23.4,80.6,22.4,80.1,22.1z"/>
			<path class="st1" d="M81.3,20.6c-1-0.6-2-1.3-3-1.9c-0.5-0.3-1,0.7-0.5,1c1,0.6,2,1.3,3,1.9C81.4,21.9,81.8,21,81.3,20.6z"/>
		</g>
		<rect x="57.4" y="42.2" class="st2" width="1.4" height="0.5"/>
	</g>
</g>
</svg>
