<?xml version="1.0" encoding="utf-8"?>
<!-- Generator: Adobe Illustrator 23.0.2, SVG Export Plug-In . SVG Version: 6.00 Build 0)  -->
<svg version="1.1" id="Layer_1" xmlns="http://www.w3.org/2000/svg" xmlns:xlink="http://www.w3.org/1999/xlink" x="0px" y="0px"
	 viewBox="0 0 560 288" style="enable-background:new 0 0 560 288;" xml:space="preserve">
<style type="text/css">
	.Drop_x0020_Shadow{fill:none;}
	.Outer_x0020_Glow_x0020_5_x0020_pt{fill:none;}
	.Jive_GS{fill:#A6D0E4;}
	.st0{fill:none;}
	.st1{fill:#FFD1C3;}
	.st2{fill:#F5A256;}
	.st3{fill:#FF8A9E;}
	.st4{fill:#531C10;}
	.st5{font-family:'Mistral';}
	.st6{font-size:16px;}
	.st7{fill:#FF899F;}
	.st8{fill:#FFFFFF;}
	.st9{font-size:12px;}
</style>
<g>
	<polygon class="st0" points="426.9,99.6 428.9,99.6 428.9,99.6 426.9,99.6 	"/>
	<g>
		<path class="st1" d="M364.5,164.9c-0.2-0.6-0.5-1.1-1.1-1.6l-20.3-19.1c-0.1-0.1-0.3-0.2-0.4-0.3l0.5-0.7c0.8-1.2,1.4-2.1,1.7-2.9
			c0.4-1.1,0.4-2.1-0.1-3c-0.3-0.6-0.8-1.1-1.5-1.5c-0.5-0.3-1.2-0.6-2.1-1c-14.3-5.7-28.7-10.1-43.3-13.3
			c-15.3-3.3-30.4-5.2-45.3-5.6c-15.6-0.4-30.8,0.8-45.6,3.6c-15.4,2.9-29.7,7.5-43,13.7c-1.5,0.7-2.6,1.4-3.5,2.3
			c-0.8,0.8-1.1,1.6-1.1,2.5c0,0.1,0,0.1,0,0.2l0,0.2c0,0.3,0.1,0.6,0.3,1c0.3,0.8,1.8,3.4,4.5,7.8c-0.7,0.1-1.4,1.3-2.1,1.7
			l-17.1,9.4c-1.1,0.6-1.9,1.4-2.5,2.2c-0.7,1-0.7,1.9-0.1,2.6c0.3,0.4,0.7,0.6,1.4,0.8c0.4,0.1,1,0.2,1.7,0.3l12,1.4
			c1.2,0.1,2.1,0.3,2.8,0.6c1,0.3,1.7,0.8,2,1.5c0.3,0.5,0.4,1.1,0.4,1.8c0,0.5-0.1,1.1-0.4,1.9l-4.6,18.1c-0.2,0.9-0.2,1.8,0,2.6
			c0.3,0.9,0.8,1.3,1.7,1.3c0.3,0,0.7-0.1,1-0.4c0.1-0.1,0.4-0.3,0.8-0.7c1.8-1.6,4.2-3,7.1-4.3c1.1-0.5,3.8-1.4,8.1-2.9
			c7.3-2.6,14.2-5.7,20.8-9.3c1.3-0.7,0,0.7,0,0c0-0.9-3.1-1-5-1.4c-4.1-1-9.6-2.4-14-3.1c9.1-6.2,24.8-13.2,36.6-16.3
			c11.2-3,22.9-4.4,34.9-4.1c11.3,0.2,22.9,1.8,34.8,4.7c10.9,2.7,29.1,9,40.1,13.9l-17.5,2.6c-0.6,0.1-1.2,0.3-1.6,0.5
			c-0.5,0.3-0.8,0.7-0.6,1.2c0.1,0.3,0.5,0.6,1.1,1l37.2,18.6c1.3-9.1-1.2-18.3-2.3-27.5c5.2,0.1,12.9,0.2,23.3,0.4
			C364.6,166.1,364.7,165.6,364.5,164.9"/>
		<path class="st2" d="M194.7,95.2c-0.5,0.8-0.8,1.8-0.9,3.1c-0.1,1.7,0.1,3.3,0.6,4.8c0.3,0.8,0.6,1.5,1.1,2.1
			c0.2,0.3,0.6,0.7,1.1,1.2c0.9,0.8,1.7,1.5,2.3,1.9c1.7,1.1,3.7,1.8,6.2,2.3c2,0.4,3.9,0.5,5.6,0.3c1-0.1,2.1-0.3,3.3-0.7
			c1-0.3,1.8-0.6,2.4-0.9c0.5-0.3,1.1-0.8,1.9-1.5c0.8-0.8,1.5-1.4,1.9-1.9c0.6-0.7,1.1-1.5,1.5-2.2c0.2-0.5,0.4-1,0.6-1.5
			c0.3-1,0.3-2.4,0.2-4c-0.3-2.7-0.9-5-1.9-6.9c-0.2-0.4-0.4-0.7-0.6-0.8c-0.4-0.3-1-0.5-1.9-0.5c-0.8,0-1.5,0.1-2.1,0.4
			c-0.7,0.3-1.3,0.6-1.8,1.1c-0.6,0.6-1,1.6-1.3,2.8c-0.1,0.5-0.2,0.9-0.3,1.1c-0.1,0.4-0.3,0.7-0.5,1c-0.5,0.6-1.4,0.9-2.6,1
			c-1.3,0.1-2.6-0.1-3.9-0.5c-0.7-0.3-1.3-0.6-1.6-1c-0.1-0.2-0.3-0.5-0.4-0.9c-0.2-0.4-0.3-0.7-0.5-0.9c-0.3-0.4-0.8-0.7-1.6-1.1
			c-1-0.4-1.8-0.6-2.4-0.6c-0.8,0-1.6,0.4-2.6,1.1C195.7,94.1,195.1,94.7,194.7,95.2 M199.3,106.2c-0.1-0.1-0.3-0.2-0.4-0.3
			c-0.5-0.4-0.9-0.7-1.2-1c-0.4-0.5-0.7-1-1-1.5c-0.3-0.5-0.5-1.1-0.6-1.8c0.4,0.1,0.9,0.1,1.4,0c0.4-0.1,1-0.3,1.9-0.7
			c0.7-0.3,1.2-0.6,1.5-0.8c0.2-0.1,0.4-0.3,0.7-0.6c0.3-0.2,0.6-0.4,0.8-0.4c0.2-0.4,0.4-0.7,0.8-1c0.4,0.3,0.8,0.5,1.3,0.7
			c0.1,0,0.2,0.1,0.2,0.1c0,0.2,0,0.5,0.1,0.8l0.1,0.4c0,0.4,0,0.6,0,0.7c-0.1,0.4-0.1,0.7-0.1,0.9l0,0.4l-0.1,0.5
			c0,0.5,0,0.9-0.1,1.1c0.1,0,0.1,0,0.1-0.1l0.1-0.9c0-0.2,0.1-0.4,0.1-0.6l0.1-1c0.1-0.3,0.1-0.6,0.1-0.8l0-0.6l-0.1-0.2l0-0.6
			c0.2,0.1,0.5,0.2,0.8,0.2c0,0.2,0,0.4,0,0.7l0.1,3.1c0,0.4,0,0.8,0,1.1c-0.1,0.6-0.1,1.1-0.1,1.4c0.1,0.6,0.1,1,0,1.3
			c-0.1,0.5-0.4,1-1,1.5c-0.2,0.2-0.3,0.4-0.4,0.5c-1.4-0.4-2.8-1-4.1-1.9c-0.3-0.2-0.5-0.3-0.8-0.5c0.2-0.2,0.3-0.4,0.5-0.6
			c0,0,0.1-0.1,0.1-0.1c0,0,0-0.1,0-0.2c0-0.1,0-0.1,0.1-0.1c0,0-0.1,0-0.2,0c0,0,0,0.1-0.1,0.2l-0.2,0.3L199.3,106.2 M205.9,108.9
			c0.3-0.4,0.6-0.7,0.7-1c0.3-0.4,0.5-0.8,0.6-1.2c0.1-0.5,0.2-1.1,0.1-1.9l-0.2-5.1c0-0.2,0-0.4,0-0.6c0.1,0,0.1,0,0.2,0
			c1,0.2,1.7,0.3,2.3,0.2c0.3,0,0.6,0,0.9-0.1c0.2,0.3,0.4,0.6,0.8,1.1c0.4,0.6,0.7,1,1,1.3c0.1,0.1,0.1,0.2,0.1,0.2
			c0.1,0,0.2,0,0.2,0c0,0-0.1-0.2-0.2-0.3c-0.3-0.5-0.7-1.1-1.2-1.8l-0.3-0.4c0.2,0,0.4-0.1,0.5-0.1c0,0,0.1,0.1,0.2,0.2
			c0.1,0.1,0.3,0.2,0.6,0.5c1.5,1.1,2.5,2.3,3.1,3.5c0.1,0.3,0.3,0.9,0.5,1.6c0.2,0.8,0.3,1.4,0.3,2c0,0.1,0,0.3,0,0.4
			c-0.4,0.3-0.9,0.5-1.3,0.7c0-0.2,0-0.4,0-0.5l0-0.7c-0.1-1.2-0.2-2.1-0.4-2.7c-0.1-0.3-0.2-0.4-0.3-0.6c0-0.1-0.2-0.2-0.4-0.5
			l-0.4-0.4c0,0.1,0.1,0.3,0.3,0.5c0.2,0.2,0.3,0.4,0.4,0.4c0.1,0.1,0.1,0.2,0.2,0.4c0.1,0.2,0.1,0.3,0.2,0.4l0.2,0.6
			c0,0.2,0.1,0.4,0.1,0.6c0.1,0.9,0.1,1.7,0.1,2.3l0,0.3c-0.9,0.4-1.9,0.7-3.2,0.9l0.1-0.2c0-0.1,0-0.2,0-0.2l0-0.2
			c0-0.2,0-0.4,0-0.4c-0.1,0.2-0.1,0.3-0.1,0.4c0,0.1,0,0.1,0,0.2c0,0.1,0,0.1,0,0.3l0,0.3c0,0,0,0,0,0c-0.1,0-0.2,0-0.3,0.1
			c-0.8,0.1-1.7,0.2-2.5,0.2c0.1-0.3,0.1-0.6,0.2-0.8c0-0.1,0-0.1,0-0.1c-0.1,0-0.1,0.1-0.1,0.3l-0.1,0.7
			C207.5,109.2,206.7,109.1,205.9,108.9 M202.4,97.1c0,0,0.1,0.1,0.1,0.1c-0.7,0.6-1.4,1.1-2.2,1.6c-1.5,0.9-2.9,1.4-4.3,1.4
			c0,0-0.1,0-0.1,0c0-0.5,0-1-0.1-1.6c0,0,0,0,0.1,0c0,0,0,0-0.1-0.1c0,0,0,0,0,0c0-0.6,0-1,0.1-1.3c0.1-0.3,0.3-0.6,0.7-1.1
			c0.6-0.7,1.2-1.2,1.7-1.5c0.4-0.2,0.7-0.3,1.1-0.3c0.4,0,0.8,0.1,1.1,0.3c0.4,0.2,0.7,0.6,1,1.1c0.1,0.2,0.2,0.4,0.3,0.6
			c0,0.1-0.1,0.1-0.1,0.1c0,0-0.2,0.1-0.5,0.2c-0.1,0-0.2,0.1-0.4,0.3l-0.7,0.4c-0.7,0.4-1.3,0.7-1.7,0.8l-0.1,0
			c0,0.1,0,0.1,0.1,0.1c0.1,0,0.1,0,0.2,0c0.2-0.1,0.5-0.2,0.8-0.3l2.5-1.5l0.1-0.1C202.3,96.9,202.4,97.1,202.4,97.1 M218.4,105
			C218.4,105.1,218.4,105.1,218.4,105c-0.1,0.1-0.1,0.2-0.1,0.2l0,0c0,0,0,0,0,0c-0.3,0.4-0.7,0.8-1.1,1.1c0-0.2,0-0.4-0.1-0.7
			c-0.2-1.2-0.4-2-0.6-2.4c-0.3-0.8-0.8-1.6-1.4-2.5c-0.6-0.8-1.1-1.5-1.7-2c-0.1-0.1-0.3-0.2-0.4-0.3c0.2-0.1,0.4-0.3,0.6-0.4
			c0,0,0.1,0,0.1,0c0.5,0.1,1,0.4,1.2,0.8c0.1,0.1,0.2,0.2,0.3,0.2c-0.1-0.2-0.2-0.4-0.2-0.4c0,0-0.2-0.2-0.4-0.3
			c-0.2-0.2-0.4-0.3-0.4-0.3c-0.1,0-0.2-0.1-0.4-0.1c0.2-0.2,0.3-0.3,0.4-0.5c0-0.1,0.1-0.1,0.1-0.2c0.3,0.1,0.6,0.1,0.7,0.1
			l1.6,0.2c0.2,0,0.3,0,0.3,0.1l0.3,0.1l0.6,0.4c0.1,0.1,0.2,0.1,0.3,0.2l0,0.1c0,0.1,0.1,0.1,0.2,0.1l0-0.1l-0.1,0
			c0-0.1,0-0.1-0.1-0.2c-0.2-0.2-0.3-0.3-0.5-0.3l-0.2-0.1c-0.1-0.1-0.3-0.2-0.5-0.3c-0.1,0-0.2-0.1-0.3-0.1l-1.2-0.2
			c-0.1,0-0.3,0-0.5,0l-0.4-0.1c-0.1,0-0.1,0-0.2,0c0-0.1,0.1-0.2,0.1-0.4c0,0,0.1,0,0.1,0c1.4-0.1,2.5-0.2,3.4-0.2l1.4,0
			c0.3,0,0.6-0.1,0.9-0.1c0.1,0.4,0.2,0.8,0.2,1.2c0.1,0.7,0.2,1.5,0.2,2.3c0,0-0.1,0-0.2-0.1c-0.1,0-0.2-0.2-0.4-0.3
			c-0.1-0.1-0.2-0.1-0.3-0.1l0.1,0.2l0.2,0.2c0.1,0.1,0.2,0.2,0.3,0.2l0.3,0.2c0,0.6,0,1-0.1,1.4c-0.1,0.3-0.2,0.6-0.3,0.9
			c-0.1-0.1-0.2-0.2-0.3-0.2c0,0,0,0,0-0.1c-0.1,0-0.2-0.1-0.2-0.2l0,0c0,0.1,0,0.2,0.2,0.3c0.1,0.1,0.3,0.2,0.4,0.2
			c-0.1,0.2-0.2,0.5-0.4,0.7c0,0.1-0.1,0.1-0.1,0.2l-0.1-0.1c-0.1-0.1-0.2-0.1-0.3-0.1c0.1,0.1,0.2,0.2,0.3,0.3
			c-0.3,0.5-0.6,1-1,1.5c0-0.1-0.1-0.2-0.2-0.2l-0.1-0.1c0,0,0-0.1,0-0.1c0-0.1-0.1-0.1-0.1-0.1c-0.1,0.1-0.1,0.2,0,0.3
			c0,0,0.1,0.1,0.2,0.1C218.4,104.9,218.4,105,218.4,105 M214.9,94.8c0.1,0,0.2-0.1,0.3-0.1l2.6-0.5c0.2,0,0.4-0.1,0.5-0.1
			c0.2,0,0.3,0,0.4,0l0.2,0l0.1,0c0.1,0,0.1,0,0.1-0.1c-0.5-0.1-0.8-0.1-1-0.1c-0.1,0-0.3,0-0.4,0c-0.1,0-0.3,0.1-0.7,0.2l-1.3,0.3
			c-0.3,0.1-0.6,0.1-0.8,0.2c0.1-0.1,0.1-0.3,0.2-0.4c0.2-0.4,0.3-0.7,0.5-0.9c0.2-0.3,0.4-0.5,0.7-0.7c0.5-0.3,1.1-0.5,1.8-0.4
			c0.3,0.1,0.6,0.1,0.8,0.3c0.2,0.1,0.4,0.4,0.5,0.9c0.2,0.6,0.4,1.1,0.5,1.7l-2-0.1c-0.4,0-1,0.1-1.7,0.2l-1.5,0.2
			C214.8,95.1,214.9,95,214.9,94.8 M218.2,101.4c0.1,0.1,0.1,0.1,0.1,0.2l0.1,0.1l0.1,0c0,0,0.1,0,0.1-0.1l0-0.1l-0.2-0.2l-0.1-0.1
			c0,0-0.1-0.1-0.1-0.1c-0.1,0-0.1,0-0.1,0.1c0,0,0,0.1,0,0.1L218.2,101.4 M197.1,98.1c0.1,0,0.1-0.1,0-0.1c-0.1,0-0.3-0.1-0.6-0.1
			l-0.1,0l0,0c0,0,0,0,0,0.1l0,0.1l0.1,0c0.1,0,0.2,0,0.3,0.1c0,0,0,0,0,0L197.1,98.1 M196,99.5C196,99.5,196.1,99.5,196,99.5
			l0.4,0.1l0.2-0.1c0.1,0,0.2-0.1,0.2-0.1c0.1,0,0.1-0.1,0.1-0.2c-0.1,0-0.3,0-0.5,0.1c-0.1,0-0.2,0-0.3,0c0,0-0.1-0.1-0.1-0.1
			c0,0-0.1,0-0.1,0.1C196,99.4,196,99.4,196,99.5 M210.4,105.4c0,0.1,0,0.2-0.1,0.2l0.1,0.1l0,0l0,0l0,0l0.1-0.4c0-0.1,0-0.2,0-0.2
			l0-0.1c0,0,0-0.1,0.1-0.1c0-0.1-0.1-0.1-0.2-0.1c-0.1,0.1-0.1,0.2-0.1,0.2l0,0.1l0,0.1C210.4,105.2,210.4,105.3,210.4,105.4
			 M209.1,106.5c0.1,0,0.2,0,0.2-0.1l0-0.1l0.1-0.1c0,0,0-0.1,0.1-0.2l0-0.1c0,0,0,0,0-0.1l0-0.1l0-0.2c0,0,0-0.1,0-0.1
			c0,0,0,0-0.1,0l0,0.1c-0.1,0.1-0.1,0.3,0,0.3l0,0.1l0,0.2l0,0.1l-0.1,0.1L209.1,106.5C209.1,106.5,209.1,106.5,209.1,106.5
			 M201.7,102.6l0.1-0.1l0-0.1l0.1-0.2l0.1-0.1l0-0.1l0-0.1l0.1-0.1c0.1,0,0.1-0.1,0-0.1c-0.1-0.1-0.1-0.1-0.2,0
			c0,0-0.1,0.1-0.1,0.2l-0.3,0.6l-0.1,0.1l0,0C201.6,102.7,201.6,102.7,201.7,102.6 M201.4,103.8l0.1,0c0.1,0,0.2-0.1,0.4-0.3
			c0.1-0.1,0.2-0.2,0.2-0.2c0.1-0.1,0.2-0.3,0.2-0.5l0-0.1c0,0,0-0.1-0.1,0c0,0-0.1,0.1-0.1,0.2c0,0.1-0.1,0.3-0.3,0.4L201.4,103.8
			 M203.5,106.6c0,0,0.1,0,0.1-0.1c0.1-0.1,0.1-0.3,0.1-0.4c0-0.1,0-0.2,0.1-0.2l0.1-0.3l0.1-0.1c0,0,0-0.1,0-0.2l-0.1,0.1l-0.3,0.4
			l-0.2,0.6l0,0.2C203.4,106.6,203.4,106.7,203.5,106.6L203.5,106.6z"/>
		<path class="st3" d="M305.7,99.2c0.4-1,0.6-2.1,0.5-3.3c-0.1-1.1-0.4-2.2-1-3.2c-0.5-0.8-1.2-1.7-2.1-2.5
			c-0.8-0.7-1.6-1.2-2.3-1.6c-1-0.5-2.1-0.8-3.4-0.9c-1.2-0.1-2.4,0-3.5,0.4c-1.1,0.3-2.1,0.9-3,1.7c-0.9,0.8-1.5,1.6-2,2.6
			c-0.1,0.3-0.2,0.4-0.3,0.5c-0.1,0.2-0.2,0.3-0.4,0.4c-0.1,0.1-0.3,0.2-0.5,0.2c-0.2,0.1-0.4,0.1-0.5,0.1c-1.2,0.3-2.2,0.8-3.1,1.5
			c-0.8,0.6-1.3,1.3-1.6,2.1c-0.2,0.7-0.2,1.3,0,1.9c0.2,0.9,0.8,1.8,1.8,2.6c0.3,0.2,0.6,0.4,0.9,0.6c-0.1,0-0.1,1.4-0.1,4
			c0,2.7,0.1,4.1,0.2,4.2c0.1,0.1,4.3,1.5,12.4,4.1c0.4-0.3,2.4-2.9,6-7.8c1.2-0.1,2.3-0.5,3.1-1.2c0.6-0.4,1.1-1,1.4-1.6
			c0.3-0.7,0.5-1.3,0.4-2c-0.1-0.7-0.4-1.3-1-1.9C307.1,99.6,306.5,99.3,305.7,99.2 M303.9,98.7c-0.1,0.1-0.3,0.2-0.3,0.2
			c-0.1,0.1-0.2,0.2-0.2,0.3c0,0.1,0,0.2,0,0.3c0.1,0.1,0.3,0.2,0.5,0.3c0.2,0,0.3,0.1,0.5,0.1c-0.1,0-0.1,0.1-0.1,0.1l-1.1,0.3
			l0,0.1c0.2,0.1,0.3,0.1,0.5,0l0.2-0.1c0.1,0,0.2-0.1,0.4-0.1l0.3-0.1c0,0,0.1,0,0.1-0.1c0.2,0.1,0.4,0.1,0.6,0.2
			c-0.1,0.1-0.2,0.1-0.3,0.1c-0.2,0.1-0.3,0.1-0.4,0.2c0,0,0.1,0.1,0.1,0.1c0,0,0.1,0,0.2,0c0.3-0.1,0.5-0.2,0.5-0.2
			c0.1,0,0.1-0.1,0.2-0.1c0.1,0,0.2,0.1,0.3,0.1c0.6,0.3,1.1,0.7,1.3,1.1c0.2,0.5,0.3,1,0.1,1.5c-0.2,0.5-0.5,0.9-0.9,1.3
			c-1.4,1.2-3,1.6-4.8,1.1c-0.6-0.2-1.1-0.4-1.6-0.8c-0.4-0.2-0.6-0.4-0.6-0.5c-0.1-0.4-0.2-0.7-0.2-0.9c-0.1-0.3-0.3-0.5-0.5-0.6
			c-0.2,0-0.4,0-0.5,0.1c-0.2,0.1-0.3,0.2-0.4,0.4c0,0.1-0.1,0.2-0.2,0.5c-0.1,0.2-0.2,0.4-0.3,0.5c-0.3,0.3-0.8,0.5-1.3,0.5
			c0,0,0,0-0.1,0c-0.1,0-0.1,0-0.2,0c-0.1,0-0.2,0-0.3,0c-0.7-0.1-1.4-0.3-2-0.7c-0.6-0.4-1-1-1.1-1.6c0-0.4,0-0.7-0.1-0.9
			c-0.1-0.4-0.3-0.6-0.6-0.7c-0.2-0.1-0.4,0-0.6,0.1c-0.3,0.2-0.5,0.3-0.6,0.4c-0.8,0.4-1.7,0.6-2.6,0.4c-0.6-0.1-1.1-0.3-1.6-0.7
			c-0.8-0.5-1.4-1.1-1.6-1.6c-0.3-0.4-0.4-0.9-0.3-1.5c0-0.5,0.2-1,0.5-1.5c0.3-0.4,0.7-0.8,1.2-1.1c0.5-0.3,1-0.5,1.5-0.6
			c0,0,0,0,0,0c0,0.1,0.1,0.1,0.2,0.2c0,0.1,0.1,0.2,0.1,0.2l0.1,0.1l0,0.1l0.1,0.1l0.2,0.1c0.1,0.1,0.2,0.1,0.3,0.1
			c0,0,0.1-0.1,0.1-0.1c0,0,0-0.1,0-0.1c0-0.1-0.1-0.1-0.2-0.1l0,0c-0.2-0.1-0.4-0.3-0.6-0.5c0,0,0,0,0-0.1c0.2,0,0.5-0.1,0.9-0.1
			c0,0,0,0,0.1,0c0,0,0,0,0.1,0.1c0.1,0.1,0.2,0.2,0.3,0.2c0.1,0.1,0.2,0.1,0.2,0.1l0.2,0.1c0,0,0.1-0.1,0.1-0.1c0,0,0-0.1,0-0.1
			c0,0-0.1-0.1-0.2-0.1c-0.2,0-0.3-0.1-0.3-0.2l0-0.1c0.3-0.1,0.5-0.2,0.7-0.3c0.3-0.2,0.5-0.4,0.7-0.8c0.1-0.2,0.3-0.6,0.5-1.1
			c0.2-0.5,0.4-0.8,0.6-1.1c0.5-0.6,1.3-1.2,2.5-1.8c0.8-0.4,1.4-0.6,1.9-0.7c0.9-0.2,1.9-0.1,3.1,0.2c1,0.3,1.9,0.6,2.5,1
			c0.7,0.4,1.5,1.1,2.2,2c0.6,0.8,1.1,1.6,1.2,2.3c0.1,0.5,0.2,1.2,0.2,2.1c0,0.4,0,0.8-0.1,1c-0.1,0.4-0.2,0.6-0.5,0.8
			C304.2,98.6,304.1,98.7,303.9,98.7 M299.9,106.4c-0.6,1.2-1,2-1.3,2.3c-0.5,0.8-1.2,1.8-2.3,3.2l-0.6,0.8c-0.1,0-0.3-0.1-0.6-0.2
			c-0.3-0.1-0.5-0.2-0.6-0.2c0.1-0.1,1.6-2.2,4.6-6.4C299.4,106.2,299.6,106.3,299.9,106.4 M290.3,102.8c0.2-0.1,0.3-0.2,0.3-0.2
			c-1.2,5-1.7,7.7-1.7,8c-0.6-0.2-1-0.3-1-0.3c0-0.1,0.4-2.4,1.2-6.9c0.1,0,0.2-0.1,0.3-0.1c0.1-0.1,0.4-0.2,0.7-0.3
			C290,103,290.2,103,290.3,102.8 M293.4,105.9c0,0,0-0.1,0.1-0.1c0.4,0.2,0.8,0.3,1.2,0.4c0,0.1-0.4,1-1.1,2.9
			c-0.7,1.9-1.1,2.8-1.1,2.8l-1.1-0.4c0.1-0.4,0.4-1.3,0.8-2.8c0.2-0.8,0.5-1.5,0.7-1.9C293.1,106.4,293.3,106.1,293.4,105.9
			 M300.4,95.9L300.4,95.9c-0.1,0-0.3,0-0.4,0c-0.1,0-0.2,0.1-0.2,0.2c0,0,0,0.1-0.1,0.3c0,0.1,0,0.1,0,0.1c0,0,0,0.1,0.1,0.1
			c0.1,0.2,0.3,0.3,0.6,0.3c0.1,0,0.3,0,0.4-0.1c0.1,0,0.2-0.1,0.3-0.2c0.1-0.2,0.1-0.3-0.1-0.5C300.8,96,300.6,95.9,300.4,95.9
			 M296.5,97.5c-0.2,0.1-0.4,0.2-0.5,0.3c-0.2,0.2-0.2,0.3-0.2,0.5c0,0,0.1,0.2,0.1,0.4c0.1,0.2,0.1,0.3,0.2,0.3c0,0,0.1,0,0.2,0.1
			l0.7,0.2c0.1,0,0.2,0,0.2,0c0,0,0.1,0,0.2-0.1c0.2-0.1,0.4-0.2,0.5-0.3c0.1-0.1,0.2-0.3,0.2-0.5c0.1-0.2,0.1-0.4,0.1-0.6
			c-0.1-0.1-0.2-0.3-0.4-0.4l0,0.1C297.3,97.4,296.8,97.4,296.5,97.5 M293.4,97.3C293.4,97.3,293.4,97.3,293.4,97.3
			c-0.1,0-0.2,0-0.3,0c0,0-0.1,0-0.1,0l0,0.1c0,0-0.1,0.1-0.1,0.1c0,0.1,0,0.1,0,0.2l0,0.1l0.1,0l0.4,0.1c0.1,0,0.1-0.1,0.1-0.1
			c0,0,0-0.1,0.1-0.2l0-0.1l0-0.2C293.5,97.3,293.5,97.3,293.4,97.3 M293.1,95.3c0.2-0.1,0.3-0.2,0.4-0.2c0.1-0.1,0.2-0.2,0.2-0.4
			c0-0.1,0.1-0.3,0-0.4c0-0.1-0.1-0.2-0.2-0.4c-0.2-0.3-0.5-0.4-0.7-0.5c0,0-0.1,0.1-0.2,0c-0.2,0-0.4,0-0.6,0.1
			c-0.2,0.1-0.4,0.1-0.5,0.2c0,0-0.1,0.1-0.1,0.3l-0.1,0.4c0,0.2,0,0.3,0.1,0.4c0.1,0.1,0.2,0.1,0.3,0.1l0.9,0.3c0.1,0,0.2,0,0.2,0
			C292.9,95.4,293,95.4,293.1,95.3 M299.2,92.8c0,0,0-0.1,0-0.2c0-0.1-0.1-0.2-0.1-0.3c-0.1-0.1-0.3-0.2-0.6-0.3l0,0.1
			c-0.2-0.1-0.3,0-0.5,0c-0.2,0.1-0.3,0.2-0.3,0.3c0,0.1,0,0.2,0.1,0.4c0,0,0,0.1,0.1,0.1l0.1,0l0.5,0.1c0.2,0.1,0.4,0.1,0.5,0
			c0.1,0,0.2-0.1,0.3-0.3L299.2,92.8z"/>
		<path class="st4" d="M368.8,166.7c-0.2-0.6-0.6-1.2-1.1-1.7l-21-20.4c-0.1-0.1-0.3-0.2-0.4-0.4l0.5-0.8c0.9-1.2,1.4-2.3,1.7-3.1
			c0.4-1.2,0.4-2.3-0.1-3.2c-0.3-0.6-0.8-1.1-1.6-1.6c-0.5-0.3-1.2-0.7-2.2-1c-14.8-6.1-29.7-10.8-44.8-14.1
			c-15.8-3.5-31.4-5.5-46.8-5.9c-16.1-0.5-31.8,0.8-47.1,3.8c-15.9,3.1-30.7,7.9-44.5,14.5c-1.5,0.7-2.7,1.5-3.6,2.5
			c-0.8,0.9-1.2,1.7-1.2,2.6c0,0.1,0,0.1,0,0.2l0,0.3c0,0.3,0.2,0.6,0.3,1c0.3,0.8,1.8,3.6,4.6,8.3c-0.8,0.1-1.5,0.4-2.2,0.9
			l-17.6,10.9c-1.1,0.7-2,1.5-2.6,2.3c-0.7,1.1-0.7,2-0.1,2.8c0.3,0.4,0.8,0.7,1.4,0.9c0.4,0.1,1,0.2,1.8,0.4l12.4,1.5
			c1.2,0.2,2.2,0.4,2.9,0.6c1,0.3,1.7,0.9,2.1,1.6c0.3,0.5,0.4,1.2,0.4,1.9c0,0.5-0.2,1.2-0.4,2.1l-4.7,19.3c-0.2,1-0.2,1.9,0,2.7
			c0.3,0.9,0.9,1.4,1.7,1.4c0.3,0,0.7-0.2,1.1-0.4c0.1-0.1,0.4-0.3,0.9-0.7c1.9-1.7,4.3-3.2,7.4-4.5c1.1-0.5,3.9-1.5,8.3-3.1
			c7.5-2.8,14.7-6.1,21.5-9.9c1.4-0.8,2-1.6,2-2.4c0-1-1-1.7-3-2.2c-4.2-1-8.6-1.9-13.2-2.6c9.5-6.6,20.3-11.6,32.4-14.9
			c11.6-3.2,23.6-4.6,36.1-4.4c11.7,0.2,23.7,1.9,35.9,5c11.3,2.9,22.6,7,34,12.2l-16.1,2.4c-0.7,0.1-1.2,0.3-1.7,0.6
			c-0.6,0.3-0.8,0.8-0.7,1.2c0.1,0.3,0.5,0.7,1.1,1.1l41.2,22.7c1.4-9.7,1.5-19.4,0.3-29.2c5.3,0.1,13.4,0.2,24,0.4
			C368.8,167.9,369,167.4,368.8,166.7 M314.7,173.7l-0.4-0.3c1-0.1,2.2-0.2,3.5-0.3c0.2,0,0.5,0,0.7-0.1c0.4,0.1,0.9,0.3,1.4,0.5
			c1,0.5,1.7,0.8,1.9,1c0.3,0.2,0.7,0.4,1.3,0.8c0.5,0.3,0.9,0.5,1.3,0.6c-1.3-1.3-2.9-2.3-4.6-3c2.6-0.3,4.5-0.5,5.6-0.6
			c0.7-0.1,4-4.3,9.9-12.6c2.9-4.2,5.8-8.3,8.6-12.5l18.3,17.5c-8.5-0.3-14.9-0.5-19.1-0.6c-1.3,0-2.2,0.1-2.7,0.5
			c-0.8,0.6-1.1,1.9-0.7,3.7c1.6,7.5,1.9,15,0.7,22.5c-10.2-5.1-20.3-10.8-30.3-17.1c0.8-0.1,1.9-0.2,3.3-0.4
			c0.9,0.6,1.8,1.1,2.7,1.5c0.7,0.3,1.1,0.5,1.4,0.7c0.2,0.1,0.6,0.4,1,0.7c0.4,0.3,1.2,0.6,2.1,1l1.4,0.5c1.1,0.4,2.2,0.8,3,1.1
			c0-0.2-0.1-0.3-0.4-0.4l-3.7-1.6c-1-0.5-1.6-0.8-1.8-0.9c-0.7-0.5-1.3-0.8-1.7-1C316.4,174.6,315.4,174.1,314.7,173.7
			 M325.3,167.7l-0.9-0.5c-12.1-5.8-24.2-10.3-36.4-13.5c-13.1-3.4-26-5.2-38.6-5.4c-13.5-0.2-26.4,1.6-38.8,5.2
			c-12.4,3.6-23.4,8.9-33,15.9c-0.3-0.3-0.4-0.5-0.5-0.5c-0.1-0.1-0.2-0.6-0.5-1.4c-0.1-0.8-0.4-1.6-0.8-2.5
			c-0.2-0.5-0.6-1.3-1.2-2.5c-0.7-1.3-1.7-3.2-3.2-5.8l-9.8-15.9c-0.4-0.6-0.7-1.1-1-1.6c-0.2-0.5-0.4-0.9-0.5-1.1
			c-0.2-0.4-0.3-0.7-0.5-0.9c12.9-6.5,27-11.4,42.1-14.7c15.6-3.4,31.7-5,48.3-4.7c15.8,0.3,31.8,2.2,48.1,5.9
			c15.4,3.4,30.7,8.3,46,14.6c-1.6,3.8-5.2,9.7-10.8,17.9C328,163.7,325.4,167.5,325.3,167.7 M163,150.2c0.2,0.4,0.5,0.9,0.9,1.4
			c0.2,0.3,0.6,0.7,1,1.3c0.4,0.5,1.7,2.6,3.7,6.3c2.2,3.9,3.4,6.3,3.7,7.3c0.1,0.4,0.3,1,0.5,1.9l0.5,2.2c0.1,0.6,0.3,1,0.5,1.2
			c0.3,0.5,0.9,0.9,1.6,1.1c0.1,0,0.2,0.1,0.4,0.1c0.4,0.3,1,0.6,1.9,0.8c1.4,0.3,3.1,0.7,5.2,1.2l-0.5,0.2l-0.7,0.5
			c-0.4,0.2-0.8,0.3-1,0.4l-2.7,1.2c0.1,0.2,0.3,0.2,0.6,0.2c0.5-0.1,1.2-0.4,1.9-0.7l2-0.8c0.1-0.1,0.3-0.2,0.6-0.4
			c0.2-0.1,0.4-0.2,0.4-0.4c1,0.2,2.1,0.5,3.2,0.7c-0.7,0.3-1.8,0.7-3.3,1.4l-2,0.9c-0.7,0.3-1.2,0.5-1.6,0.7l-1.2,0.7
			c-0.9,0.4-1.6,0.6-2,0.8c-0.5,0.2-1.3,0.7-2.4,1.3c0,0.1,0.1,0.1,0.2,0.1l0.9-0.4c1-0.5,1.5-0.7,1.7-0.7c0.3-0.1,0.7-0.2,1.2-0.4
			c0.2-0.1,0.6-0.3,1.3-0.7c0.4-0.3,1.2-0.6,2.1-1l2.3-1c0.9-0.4,1.6-0.7,2-0.8c0.3-0.1,0.7-0.2,1.2-0.4c0.1-0.1,0.3-0.1,0.4-0.2
			c0.8,0.2,1.7,0.4,2.6,0.6c-9.9,4.9-20.3,9.3-31.3,13.4l4.6-19c0.2-0.9,0.3-1.6,0.4-2.1c0-0.8-0.1-1.4-0.5-2
			c-0.4-0.5-0.9-0.9-1.6-1.3c-0.5-0.2-1.2-0.4-2.1-0.7c-5.3-1.3-10.7-2.2-16.1-2.6C150.6,158.6,156.9,154.5,163,150.2z"/>
		<g>
			<path id="SVGID_x5F_1_x5F_" class="st0" d="M174.7,159.3c0,0,63.5-40.8,135.7-5.6"/>
			<text>			<textPath  xlink:href="#SVGID_x5F_1_x5F_" startOffset="24.121%">
<tspan  class="st4" style="font-family:'LucidaHandwriting-Italic'; font-size:20px;">Sugarfield</tspan>			</textPath>
</text>
		</g>
		<text transform="matrix(1 0 0 1 234.6225 188.6176)" class="st4 st5 st6">Richa</text>
		<path class="st7" d="M309.2,188.5c-0.7-1.1-2.5-0.1-1.8,1c4,6.5-4.8,11.4-10.8,11.4c-6.9,0-13.8-2.3-20.5-3.3
			c-6.3-0.9-12.9-1.8-19.2-1.6c-1.5,0.1-3.1,0.3-4.6,0.7c-5.7-2.5-15.6-1.6-19.6-1.1c-7.3,0.8-14.5,2.5-21.8,3.3
			c-3.8,0.4-8,0.8-11.7-0.1c-4.4-1-8.8-5-6.3-9.4c0.6-1.1-1.2-2.1-1.8-1c-1.6,2.8-1.1,6,1,8.5c2.7,3.2,7.2,4.2,11.5,4.3
			c11.8,0.3,23.3-3.6,35.1-4.1c2.2-0.1,7.4-0.2,11.3,0.9c-0.9,0.7-1.7,1.6-2,2.7c-0.7,2.4,0.1,5.6,2.9,6.5c3.1,0.9,5.5-1.6,5.7-4.2
			c0.2-2.1-0.5-3.7-1.8-4.8c1.9-0.3,3.9-0.2,5.7-0.1c6.7,0.3,13.4,1,20,2.2c5.4,0.9,10.8,2.6,16.4,2.6c4.4,0,8.6-1.3,11.4-4.5
			C310.4,195.4,311.2,191.7,309.2,188.5z M254,203.7c-0.9,2.4-3.6,1.7-4.4-0.2c-0.5-1.5,0.3-3.1,1.6-4c0.3-0.2,0.6-0.4,0.9-0.5
			C253.9,200,254.8,201.5,254,203.7z"/>
		<g>
			<g>
				<path class="st7" d="M208.8,85.4c-0.5-2.8-0.9-5.6-1.4-8.4c-0.2-1.2-2.2-0.7-2,0.5c0.5,2.8,0.9,5.6,1.4,8.4
					C207,87.1,209,86.6,208.8,85.4z"/>
				<path class="st7" d="M193.9,77.8c-0.9-1-2.3,0.4-1.5,1.4c2.1,2.4,4.2,4.8,6.3,7.1c0.9,1,2.3-0.4,1.5-1.4
					C198.1,82.6,196,80.2,193.9,77.8z"/>
				<path class="st7" d="M175.9,88.9c3.4,1.3,6.6,3,9.5,5c1.1,0.7,2.1-0.9,1.1-1.7c-3-2-6.1-3.7-9.5-5
					C175.7,86.7,174.7,88.4,175.9,88.9z"/>
				<path class="st7" d="M186.2,104.5c-3.5-0.4-7-0.8-10.5-1.2c-1.3-0.2-1.3,1.8,0,1.9c3.5,0.4,7,0.8,10.5,1.2
					C187.6,106.6,187.6,104.7,186.2,104.5z"/>
				<path class="st7" d="M188.8,113.3c-3.3,1.1-6.6,2.1-9.9,3.2c-1.3,0.4-0.7,2.3,0.6,1.9c3.3-1.1,6.6-2.1,9.9-3.2
					C190.6,114.7,190.1,112.9,188.8,113.3z"/>
			</g>
		</g>
		<g>
			<g>
				<path class="st7" d="M314,77.9c1-0.8-0.5-2.2-1.5-1.4c-2.6,2.1-4.7,4.6-6.5,7.3c-0.7,1.1,1.1,2,1.8,1
					C309.5,82.2,311.6,79.9,314,77.9z"/>
				<path class="st7" d="M321,87.1c-2.6,1.3-5.1,2.6-7.7,3.9c-1.2,0.6-0.1,2.3,1.1,1.7c2.6-1.3,5.1-2.6,7.7-3.9
					C323.3,88.2,322.2,86.5,321,87.1z"/>
				<path class="st7" d="M320.3,101.4c-2.6,0.3-5.1,0.5-7.7,0.8c-1.3,0.1-1.3,2.1,0,1.9c2.6-0.3,5.1-0.5,7.7-0.8
					C321.6,103.2,321.6,101.2,320.3,101.4z"/>
				<path class="st7" d="M318.4,113.3c-2.3-0.7-4.7-1.3-7-2c-1.3-0.4-1.9,1.5-0.6,1.9c2.3,0.7,4.7,1.3,7,2
					C319.2,115.5,319.7,113.7,318.4,113.3z"/>
			</g>
		</g>
		<g>
			<path class="st4" d="M173,151.9c2.9-1.1,5.8-2.2,8.6-3.4c1.2-0.5,0.3-2.2-0.9-1.7c-2.9,1.1-5.8,2.2-8.6,3.4
				C170.8,150.6,171.8,152.4,173,151.9z"/>
			<path class="st4" d="M183.4,149.7c-3.7,1.2-7.4,2.6-11,4.1c-1.2,0.5-0.3,2.3,0.9,1.7c3.6-1.5,7.3-2.9,11-4.1
				C185.6,151,184.7,149.3,183.4,149.7z"/>
		</g>
		<g>
			<path class="st4" d="M323.6,150.7c-2.1-0.9-4.2-1.7-6.3-2.6c-1.2-0.5-2.3,1.2-1.1,1.7c2.1,0.9,4.2,1.7,6.3,2.6
				C323.8,152.8,324.8,151.2,323.6,150.7z"/>
			<path class="st4" d="M326.4,148.1c-2.3-1.1-4.7-2.2-7-3.2c-1.2-0.6-2.3,1.1-1.1,1.7c2.3,1.1,4.7,2.2,7,3.2
				C326.5,150.4,327.6,148.7,326.4,148.1z"/>
		</g>
		<g>
			<path class="st4" d="M300,41.5c-9-1.6-16.8,2.5-23.1,7.9c0.8-6.7,0.3-13.6-4.2-19.1c-4.6-5.6-12.7-8.3-20.1-7.4
				c-13.5,1.6-20.3,15.1-16,26c-10.9-3.5-25.3,2.4-27.4,13.6c-2.9,15.4,18.7,16.9,30.6,17.1c-0.8,4.8-3.2,9.1-4.7,13.7
				c-0.1,0.2-0.2,0.3-0.2,0.5c-0.5,1.5-0.9,3.1-1.1,4.7c-0.1,0.2-0.1,0.5-0.1,0.8c0,0.3,0.1,0.6,0.3,0.8c4.3,10,15.8,11.5,25.7,7.4
				c4.1-1.7,8.5-3.7,9.5-8.1c0.7-3.4-0.3-7.1-0.7-10.5c-0.4-3.1-0.8-6.3-1.1-9.4c10.2,2.3,21.4,4.3,31.3-0.2
				c8.5-3.8,14.5-12.1,15-20.8C314.1,50.2,309,43.1,300,41.5z M262.9,102.3c-7.4,5.8-20.6,6.1-25.1-2.5c1.5-0.9,3-1.6,4.5-2.2
				c5.4,4.4,14.1,6.2,18.7,0.2c1.4,0.6,2.8,1.2,4.1,2C264.6,100.7,263.9,101.6,262.9,102.3z M266,96.7c-8.7-4.9-19.6-5.1-28.4-0.4
				c0.2-1,0.5-1.9,0.8-2.9c6.7-3.6,14.5-4.8,22.2-3.1c1.3,0.3,1.9-1.6,0.6-1.9c-7.4-1.6-15-0.8-21.7,2.3c1.5-3.7,3.2-7.3,3.8-11.3
				c6.5-2.8,14-3.6,20.7-1c0.4,3.5,0.8,6.9,1.2,10.4C265.5,91.4,266.2,94.1,266,96.7z M309.5,62.6c-2.2,7.7-9,13.7-17.3,15.5
				c-8.7,1.9-17.8-0.3-26.2-2.3c-0.1,0-0.2-0.1-0.2-0.1c5.8-3.1,10-8.2,11.3-14.4c0.3-1.2-1.8-1.7-2-0.5c-1.3,6.2-5.7,11.4-11.9,14
				c-5.1-1.5-10.5-1.5-15.6-0.2c-0.2-0.2-0.5-0.3-0.8-0.3c0,0-0.1,0-0.1,0c-0.1-0.2-0.3-0.3-0.6-0.3c-7.6-1.9-9.9-9.1-10-15.6
				c0-1.2-2.1-1.2-2.1,0c0.1,7,2.8,14.6,10.4,17.1c-0.8,0.3-1.6,0.6-2.3,0.9c-0.2,0-0.3-0.1-0.5-0.1c-8.9-0.1-25,0.8-28.6-9
				c-4.7-12.9,17-21,26.5-13.4c1.4,1.1,3.9-0.4,2.7-1.9c-7.9-9.7-2.4-25.3,11.6-26.2c5.6-0.4,11.7,1.6,15.4,5.6
				c5.6,6,4.8,14.7,3.5,22c-0.3,1.4,1.6,2.8,2.9,1.5c5.6-5.6,12.7-11.1,21.5-10.6C307.8,44.9,312,53.9,309.5,62.6z"/>
			<path class="st4" d="M258.4,55.2c0.8,4,0.1,7.9-2.1,11.5c-0.7,1.1,1.2,2.1,1.8,1c2.4-4,3.2-8.4,2.3-13
				C260.1,53.4,258.1,53.9,258.4,55.2z"/>
		</g>
		<g>
			<g>
				<path class="st4" d="M292.2,177c0.5-0.3,1-0.6,1.3-1.1c0.1-0.1,0.1-0.1,0.2-0.2c0.3-0.3,0.6-0.8,0.7-1.2c0.2-0.5,0.2-1,0.2-1.4
					c0,0,0,0,0-0.1c0-0.8-0.3-1.7-0.8-2.5c-0.5-0.9-1.3-1.6-2.3-2.2c-1.2-0.7-2.5-1.1-3.8-1.2c-0.8,0-1.8,0.1-2.9,0.4
					c-0.6,0.2-1.6,0.4-2.9,0.8c-2.2,0.6-4.5,0.9-6.8,0.9c-4.5,0-8.6,0-12.3,0c-3.1,0-4.6,0-4.7,0.1c0,1.4,0,2.2,0.1,2.2
					c0.1,0.1,5.7,0.2,16.9,0.4c0.7,0.1,1.1,0.1,1.4,0.2c0.5,0.1,1,0.2,1.3,0.4c0.3,0.1,0.7,0.3,1.1,0.5c0,0,0.4,0.2,1.1,0.6
					c0.5,0.3,1.3,0.7,2.3,1.3c0.9,0.5,1.6,0.8,2,1c0.7,0.4,1.4,0.7,2,0.9c1.6,0.6,3,0.8,4.2,0.6C291.3,177.3,291.7,177.2,292.2,177
					 M292.3,176.5C292.3,176.5,292.3,176.5,292.3,176.5c-0.4,0.2-0.8,0.4-1.3,0.5c-1.2,0.2-2.6,0.1-4.1-0.5c-0.6-0.2-1.3-0.5-2-0.8
					c-0.4-0.2-1.1-0.5-1.9-1c-0.8-0.4-1.4-0.8-1.6-0.9c0,0-0.4-0.2-1-0.6c-0.4-0.3-0.8-0.5-1.1-0.6c-0.9-0.4-1.8-0.7-2.7-0.9
					c-1-0.1-1.6-0.2-1.6-0.2l0-0.2c1.9,0.3,3.6,0.6,4.9,1c1.8,0.5,3.4,1.1,4.7,1.8c0.8,0.5,1.4,0.8,1.8,1c0.6,0.3,1.5,0.7,2.7,1
					c0.7,0.2,1.3,0.4,1.8,0.5C291.4,176.6,291.9,176.6,292.3,176.5 M293.5,175.2c-0.1,0.2-0.3,0.4-0.4,0.6c-0.1,0.1-0.2,0.2-0.3,0.2
					c-0.5,0.3-1,0.4-1.6,0.4c-0.4,0-0.9-0.1-1.5-0.3c-1.5-0.5-2.8-1-3.8-1.5c-0.3-0.2-0.9-0.5-1.5-0.8c-1.2-0.6-2.5-1.1-3.8-1.5
					c-1.3-0.4-2.5-0.6-3.6-0.8c-1-0.1-1.7-0.3-2-0.3l0-0.1c1.2,0.2,2.4,0.3,3.5,0.5c1.1,0.2,1.9,0.4,2.5,0.5
					c0.3,0.1,1.5,0.4,3.6,1.1c1.4,0.4,2.6,0.7,3.6,0.8c0.5,0.1,1.3,0.1,2.4,0.1c0.8,0,1.4,0,1.8,0c0.7-0.1,1.2-0.2,1.7-0.4
					c0,0,0.1,0,0.1,0C294.1,174.2,293.9,174.7,293.5,175.2 M293.9,173.5c-0.6,0.2-1.3,0.3-2,0.4c-0.6,0-1.3,0-2.1-0.1
					c-0.8-0.1-1.4-0.1-1.8-0.2c-0.9-0.1-2.2-0.4-3.7-0.9c-1.9-0.6-3.1-1-3.7-1.1c-1.3-0.3-3.2-0.6-5.6-0.8l0-0.3
					c0.8,0.2,1.7,0.4,2.6,0.4c0.7,0,1.6,0,2.9,0c1.4,0,2.4-0.1,3.2-0.2c0.9-0.1,1.6-0.2,2-0.3c1.5-0.2,2.9,0,4.3,0.4
					c1.5,0.4,2.8,1.1,4,2.1c0.1,0.1,0.2,0.2,0.2,0.3c0,0.1,0,0.1,0,0.2C294.2,173.4,294.1,173.4,293.9,173.5 M294.1,172.5
					c-0.2-0.2-0.6-0.4-1.2-0.8c-0.6-0.4-1.1-0.6-1.5-0.8c-1.3-0.6-2.9-0.9-4.8-0.8c-0.6,0-1.4,0.1-2.4,0.2c-1.2,0.2-2.6,0.3-4,0.4
					c-1.4,0.1-3.1,0-5.1-0.4l0-0.3c1.6,0.3,3.3,0.3,5.2,0c0.8-0.1,1.7-0.3,2.7-0.5c0.1,0,0.9-0.2,2.7-0.7c0.7-0.2,1.2-0.3,1.5-0.3
					c0.7,0,1.7,0.1,2.8,0.4c1,0.3,1.7,0.6,2.2,0.9c0.8,0.4,1.4,1,1.8,1.7c0.2,0.3,0.3,0.7,0.4,1l0,0
					C294.2,172.6,294.1,172.5,294.1,172.5 M293.4,170.4c0.1,0.2,0.2,0.4,0.3,0.5c-0.3-0.4-0.6-0.7-1-0.9c-0.8-0.5-1.9-1-3.3-1.3
					c-0.8-0.2-1.5-0.3-2-0.3c-0.4,0-0.9,0.1-1.4,0.2c-0.6,0.1-1.5,0.3-2.7,0.7c-1.2,0.3-2.1,0.5-2.7,0.6c-1.6,0.3-2.9,0.4-3.8,0.3
					c-0.9-0.1-1.6-0.2-1.8-0.2l0-0.3c1.2,0,2.2-0.1,3-0.2c1.3-0.1,2.6-0.4,3.6-0.6c1.3-0.4,2.3-0.7,3-0.9c1.2-0.3,2.2-0.5,3.1-0.4
					c1.3,0.1,2.5,0.5,3.7,1.2C292.3,169.1,292.9,169.7,293.4,170.4 M274.7,170.2l-0.1,0.7c-5.2-0.3-10.6-0.5-16-0.6
					c0,0-0.1-0.1-0.1-0.2c0-0.1,0-0.2,0.1-0.2c0.8,0,3.7,0,8.7,0.1C272,170.2,274.5,170.2,274.7,170.2z"/>
				<path class="st0" d="M274.6,170.9l0.1-0.7c-0.2,0-2.6,0-7.4-0.2c-4.9-0.1-7.8-0.2-8.7-0.1c-0.1,0-0.1,0.1-0.1,0.2
					c0,0.1,0,0.2,0.1,0.2C264,170.4,269.4,170.6,274.6,170.9z"/>
			</g>
			<g>
				<path class="st4" d="M241,171.2c0.2-0.3,0.2-0.6,0.2-0.9c-0.1-0.5-0.4-1-1.1-1.4c-0.2-0.2-0.5-0.3-0.7-0.4
					c-0.3-0.1-0.6-0.1-0.9,0c-0.6,0.1-1.1,0.3-1.5,0.6c-0.2,0.1-0.5,0.4-0.9,0.6c-0.3,0.2-0.6,0.3-1,0.4c-0.3,0.1-0.6,0-0.8-0.1
					c-0.1,0-0.1-0.1-0.2-0.1c0-0.1-0.1-0.2-0.2-0.3c-0.2-0.3-0.5-0.7-0.9-1.2c-0.3-0.4-0.6-0.7-0.9-0.7c-0.2,0-4.6,0-13.3,0.2
					c-8.7,0.1-13.1,0.3-13.2,0.3c-0.3,0.2-0.4,0.5-0.5,1c0,0.3,0,0.7,0,1c-0.2,0.1-0.3,0.2-0.4,0.2c-0.2,0.1-0.4,0.2-0.6,0.2
					l-0.5-0.1c-0.6-0.2-1.1-0.4-1.6-0.6c-0.3-0.2-0.6-0.3-0.8-0.4c-0.2-0.1-0.4-0.1-0.7-0.2c-0.4-0.1-0.8-0.1-1-0.1
					c-0.4,0-0.7,0.2-0.9,0.5c-0.2,0.3-0.3,0.6-0.3,1c0,0.2,0.1,0.5,0.3,0.8c0.2,0.4,0.5,0.7,0.8,1c0.4,0.3,0.8,0.4,1.2,0.5
					c0.3,0,0.8,0,1.4-0.3c0.7-0.2,1.2-0.4,1.5-0.7c0.2-0.2,0.3-0.3,0.4-0.4c0.2-0.1,0.3-0.2,0.5-0.3c0.2,0,0.4,0,0.6,0
					c0.2,0,0.3,0.1,0.4,0.1c0.2,0.4,0.4,0.8,0.7,1.2c0.3,0.4,0.6,0.7,0.8,0.8c0.2,0.1,0.5,0.1,0.9,0.1l24.6-0.2
					c0.4,0,0.8-0.1,0.9-0.1c0.2-0.1,0.4-0.4,0.6-0.8c0.2-0.4,0.3-0.8,0.4-1.2c0.1-0.1,0.3-0.1,0.4-0.2c0.2-0.1,0.4-0.1,0.6-0.1
					c0.2,0,0.4,0,0.7,0.1l0.7,0.1c0.2,0,0.6,0.2,1.2,0.4c0.5,0.2,0.9,0.3,1.2,0.3c0.4,0,0.7,0,1-0.2
					C240.6,171.7,240.8,171.4,241,171.2 M232.6,168.7c0.1,0.2,0.2,0.4,0.2,0.6c-1.2,0.2-5.7,0.2-13.4,0.1c-4-0.1-8.2-0.1-12.9-0.2
					c-0.2-0.2-0.2-0.3-0.1-0.3c3.1-0.3,8-0.3,14.6-0.2c5.9,0.1,9.6,0,11.2-0.2C232.3,168.4,232.5,168.6,232.6,168.7z"/>
				<path class="st8" d="M232.8,169.3c0-0.2-0.1-0.4-0.2-0.6c-0.1-0.2-0.3-0.3-0.5-0.4c-1.5,0.2-5.2,0.3-11.2,0.2
					c-6.6-0.1-11.4,0-14.6,0.2c-0.1,0,0,0.1,0.1,0.3c4.6,0.1,8.9,0.2,12.9,0.2C227.1,169.5,231.6,169.5,232.8,169.3z"/>
			</g>
			<text transform="matrix(1.0865 0 0 1 245.4459 171.9205)" class="st4 st5 st9">by</text>
		</g>
	</g>
</g>
</svg>
