<?xml version="1.0" encoding="utf-8"?>
<!-- Generator: Adobe Illustrator 23.0.2, SVG Export Plug-In . SVG Version: 6.00 Build 0)  -->
<svg version="1.1" id="Layer_1" xmlns="http://www.w3.org/2000/svg" xmlns:xlink="http://www.w3.org/1999/xlink" x="0px" y="0px"
	 viewBox="0 0 150 150" style="enable-background:new 0 0 150 150;" xml:space="preserve">
<style type="text/css">
	.Drop_x0020_Shadow{fill:none;}
	.Outer_x0020_Glow_x0020_5_x0020_pt{fill:none;}
	.Jive_GS{fill:#A6D0E4;}
	.st0{fill:#F5A256;}
	.st1{fill:#FF8A9E;}
	.st2{fill:#FFFFFF;}
	.st3{fill:none;}
	.st4{font-family:'Mistral';}
	.st5{font-size:12.6193px;}
	.st6{fill:#FF899F;}
	.st7{display:none;}
	.st8{display:inline;fill:none;}
	.st9{font-size:9.4645px;}
	.st10{fill:#531C10;}
</style>
<g>
	<polygon class="st3" points="182.2,63.5 183.5,63.5 183.5,63.5 182.2,63.5 	"/>
	<g class="st7">
	</g>
	<g>
		<path class="st0" d="M143.4,114.9c-0.1-0.5-0.3-0.9-0.7-1.3l-12.6-15.1c-0.1-0.1-0.2-0.2-0.3-0.3l0.3-0.6c0.5-0.9,0.9-1.7,1-2.3
			c0.3-0.9,0.2-1.7-0.1-2.3c-0.2-0.4-0.5-0.8-1-1.2c-0.3-0.2-0.7-0.5-1.3-0.8c-8.9-4.5-17.9-8-27-10.5C92.4,78,83,76.6,73.7,76.3
			c-9.7-0.3-19.2,0.6-28.4,2.9c-9.6,2.3-18.5,5.9-26.8,10.8c-0.9,0.5-1.6,1.1-2.2,1.8c-0.5,0.6-0.7,1.3-0.7,1.9c0,0,0,0.1,0,0.2
			l0,0.2c0,0.2,0.1,0.5,0.2,0.8c0.2,0.6,1.1,2.7,2.8,6.2c-0.5,0.1-0.9,1-1.3,1.3l-10.6,7.4c-0.7,0.5-1.2,1.1-1.6,1.7
			c-0.4,0.8-0.5,1.5-0.1,2.1c0.2,0.3,0.5,0.5,0.8,0.6c0.2,0.1,0.6,0.2,1.1,0.3l7.4,1.1c0.7,0.1,1.3,0.3,1.7,0.5
			c0.6,0.3,1,0.6,1.3,1.2c0.2,0.4,0.3,0.9,0.3,1.4c0,0.4-0.1,0.9-0.2,1.5l-2.9,14.3c-0.1,0.7-0.1,1.4,0,2c0.2,0.7,0.5,1,1,1
			c0.2,0,0.4-0.1,0.6-0.3c0.1-0.1,0.2-0.2,0.5-0.6c1.1-1.2,2.6-2.4,4.4-3.4c0.7-0.4,2.4-1.1,5-2.3c4.5-2,8.9-4.5,12.9-7.4
			c0.8-0.6,0,0.6,0,0c0-0.7-1.9-0.8-3.1-1.1c-2.6-0.8-6-1.9-8.7-2.4c5.7-4.9,15.5-10.4,22.8-12.8c7-2.3,14.2-3.4,21.7-3.3
			c7.1,0.1,14.3,1.4,21.6,3.7c6.8,2.1,18.1,7.1,24.9,11l-10.9,2c-0.4,0.1-0.7,0.2-1,0.4c-0.3,0.3-0.5,0.6-0.4,0.9
			c0.1,0.2,0.3,0.5,0.7,0.8l23.1,14.7c0.8-7.2-0.7-14.4-1.4-21.7c3.2,0.1,8,0.2,14.5,0.3C143.5,115.9,143.6,115.5,143.4,114.9"/>
		<path class="st0" d="M37.7,60c-0.3,0.6-0.5,1.4-0.5,2.4c-0.1,1.3,0.1,2.6,0.4,3.8c0.2,0.6,0.4,1.2,0.7,1.7c0.1,0.2,0.3,0.5,0.7,1
			c0.6,0.7,1.1,1.1,1.5,1.5c1,0.8,2.3,1.4,3.9,1.8c1.2,0.3,2.4,0.4,3.5,0.3c0.6-0.1,1.3-0.3,2.1-0.5c0.6-0.2,1.1-0.5,1.5-0.7
			c0.3-0.2,0.7-0.6,1.2-1.2c0.5-0.6,0.9-1.1,1.2-1.5c0.4-0.6,0.7-1.2,0.9-1.7c0.1-0.4,0.3-0.8,0.4-1.2c0.2-0.8,0.2-1.9,0.1-3.2
			c-0.2-2.2-0.6-4-1.2-5.4c-0.1-0.3-0.3-0.5-0.4-0.7c-0.2-0.3-0.6-0.4-1.2-0.4c-0.5,0-0.9,0.1-1.3,0.3c-0.5,0.2-0.8,0.5-1.1,0.9
			c-0.4,0.5-0.6,1.2-0.8,2.2C49,59.7,49,60,48.9,60.1c-0.1,0.3-0.2,0.6-0.3,0.8c-0.3,0.5-0.9,0.7-1.6,0.8c-0.8,0.1-1.6-0.1-2.4-0.4
			c-0.5-0.2-0.8-0.5-1-0.8c-0.1-0.1-0.2-0.4-0.3-0.7c-0.1-0.3-0.2-0.6-0.3-0.7c-0.2-0.3-0.5-0.6-1-0.9c-0.6-0.3-1.1-0.5-1.5-0.4
			c-0.5,0-1,0.3-1.6,0.9C38.3,59.1,37.9,59.5,37.7,60 M40.6,68.6c-0.1-0.1-0.2-0.2-0.2-0.2c-0.3-0.3-0.6-0.6-0.7-0.8
			c-0.3-0.4-0.5-0.8-0.6-1.2c-0.2-0.4-0.3-0.9-0.4-1.4c0.3,0.1,0.5,0.1,0.9,0c0.2-0.1,0.6-0.3,1.2-0.6c0.4-0.3,0.7-0.5,0.9-0.6
			c0.1-0.1,0.3-0.2,0.5-0.5c0.2-0.2,0.4-0.3,0.5-0.3c0.1-0.3,0.3-0.6,0.5-0.8c0.2,0.2,0.5,0.4,0.8,0.5c0,0,0.1,0,0.2,0.1
			c0,0.2,0,0.4,0,0.6l0,0.3c0,0.3,0,0.5,0,0.5C44,64.5,44,64.8,44,64.9l0,0.3L44,65.7c0,0.4,0,0.7,0,0.9c0,0,0.1,0,0.1-0.1l0.1-0.7
			c0-0.2,0-0.3,0-0.5l0.1-0.8c0-0.2,0-0.4,0-0.7l0-0.5l0-0.2l0-0.5c0.2,0.1,0.3,0.1,0.5,0.2c0,0.1,0,0.3,0,0.5l0.1,2.5
			c0,0.3,0,0.6,0,0.9c0,0.5-0.1,0.9-0.1,1.1c0,0.5,0.1,0.8,0,1c-0.1,0.4-0.3,0.8-0.6,1.2c-0.1,0.2-0.2,0.3-0.3,0.4
			c-0.9-0.3-1.7-0.8-2.5-1.5C41,68.9,40.8,68.8,40.6,68.6c0.2-0.1,0.3-0.2,0.4-0.4c0,0,0-0.1,0-0.1c0,0,0,0,0-0.1c0,0,0-0.1,0-0.1
			c0,0-0.1,0-0.1,0c0,0,0,0.1-0.1,0.1l-0.1,0.2L40.6,68.6 M44.7,70.8c0.2-0.3,0.4-0.6,0.4-0.8c0.2-0.3,0.3-0.6,0.3-0.9
			c0.1-0.4,0.1-0.9,0.1-1.5l-0.1-4c0-0.2,0-0.3,0-0.5c0,0,0.1,0,0.1,0c0.6,0.1,1.1,0.2,1.4,0.2c0.2,0,0.4,0,0.6-0.1
			c0.1,0.2,0.3,0.5,0.5,0.8c0.3,0.4,0.5,0.8,0.6,1.1c0,0.1,0.1,0.1,0.1,0.1c0.1,0,0.1,0,0.1,0c0,0-0.1-0.1-0.2-0.3
			c-0.2-0.4-0.5-0.9-0.8-1.4l-0.2-0.4c0.1,0,0.2,0,0.3-0.1c0,0,0.1,0.1,0.1,0.1c0,0,0.2,0.2,0.4,0.4c0.9,0.9,1.6,1.8,1.9,2.8
			c0.1,0.2,0.2,0.7,0.3,1.3c0.1,0.6,0.2,1.1,0.2,1.5c0,0.1,0,0.2,0,0.3c-0.3,0.2-0.5,0.4-0.8,0.6c0-0.1,0-0.3,0-0.4l0-0.5
			c0-1-0.1-1.7-0.3-2.1c-0.1-0.2-0.1-0.3-0.2-0.4c0-0.1-0.1-0.2-0.2-0.4l-0.2-0.3c0,0.1,0.1,0.2,0.2,0.4c0.1,0.2,0.2,0.3,0.2,0.3
			c0,0.1,0.1,0.2,0.1,0.3c0,0.1,0.1,0.2,0.1,0.3l0.1,0.5c0,0.2,0,0.3,0.1,0.5c0.1,0.7,0.1,1.3,0,1.8l0,0.2c-0.6,0.3-1.2,0.5-2,0.7
			l0-0.2c0-0.1,0-0.1,0-0.2l0-0.2c0-0.2,0-0.3,0-0.3c-0.1,0.1-0.1,0.2-0.1,0.3c0,0.1,0,0.1,0,0.1c0,0,0,0.1,0,0.2l0,0.2c0,0,0,0,0,0
			c-0.1,0-0.1,0-0.2,0c-0.5,0.1-1,0.1-1.5,0.1c0-0.2,0.1-0.4,0.1-0.7c0-0.1,0-0.1,0-0.1c0,0-0.1,0.1-0.1,0.2L46.2,71
			C45.7,71,45.2,70.9,44.7,70.8 M42.5,61.5c0,0,0,0.1,0.1,0.1c-0.4,0.5-0.9,0.9-1.4,1.2c-0.9,0.7-1.8,1.1-2.7,1.1c0,0,0,0-0.1,0
			c0-0.4,0-0.8,0-1.3c0,0,0,0,0,0c0,0,0,0,0,0c0,0,0,0,0,0c0-0.4,0-0.8,0.1-1c0.1-0.2,0.2-0.5,0.4-0.9c0.4-0.6,0.8-1,1.1-1.2
			c0.2-0.1,0.5-0.2,0.7-0.2c0.3,0,0.5,0.1,0.7,0.2c0.2,0.2,0.4,0.5,0.6,0.9c0.1,0.2,0.1,0.4,0.2,0.5c0,0,0,0.1-0.1,0.1
			c0,0-0.1,0.1-0.3,0.2c-0.1,0-0.1,0.1-0.2,0.2l-0.5,0.3c-0.5,0.3-0.8,0.6-1.1,0.7l-0.1,0c0,0.1,0,0.1,0,0.1c0,0,0.1,0,0.1,0
			c0.1-0.1,0.3-0.1,0.5-0.3l1.6-1.2l0-0.1C42.5,61.3,42.5,61.4,42.5,61.5 M52.5,67.7C52.5,67.7,52.5,67.8,52.5,67.7
			c0,0.1-0.1,0.2-0.1,0.2l0,0c0,0,0,0,0,0c-0.2,0.3-0.4,0.6-0.7,0.9c0-0.2,0-0.3,0-0.5c-0.1-0.9-0.3-1.6-0.3-1.9
			c-0.2-0.6-0.5-1.3-0.9-2c-0.4-0.6-0.7-1.2-1.1-1.5c-0.1-0.1-0.2-0.2-0.3-0.3c0.1-0.1,0.3-0.2,0.4-0.3c0,0,0,0,0.1,0
			c0.3,0.1,0.6,0.3,0.8,0.6c0.1,0.1,0.1,0.2,0.2,0.1c-0.1-0.2-0.1-0.3-0.1-0.3c0,0-0.1-0.1-0.2-0.3c-0.1-0.1-0.2-0.2-0.3-0.2
			c-0.1,0-0.1-0.1-0.2-0.1c0.1-0.1,0.2-0.3,0.2-0.4c0-0.1,0-0.1,0-0.2c0.2,0,0.3,0.1,0.5,0.1l1,0.1c0.1,0,0.2,0,0.2,0l0.2,0.1
			l0.4,0.3c0.1,0.1,0.1,0.1,0.2,0.1l0,0c0,0,0.1,0.1,0.1,0.1l0,0l-0.1,0c0-0.1,0-0.1-0.1-0.1c-0.1-0.1-0.2-0.2-0.3-0.3l-0.1-0.1
			c-0.1,0-0.2-0.1-0.3-0.2c0,0-0.1,0-0.2-0.1l-0.7-0.1c-0.1,0-0.2,0-0.3,0l-0.3-0.1c0,0-0.1,0-0.1,0c0-0.1,0-0.2,0.1-0.3
			c0,0,0,0,0.1,0c0.9-0.1,1.6-0.2,2.1-0.1l0.9,0c0.2,0,0.4-0.1,0.5-0.1c0.1,0.3,0.1,0.6,0.1,0.9c0.1,0.6,0.1,1.2,0.1,1.8
			c0,0-0.1,0-0.1-0.1c-0.1,0-0.1-0.1-0.2-0.3c-0.1-0.1-0.1-0.1-0.2-0.1l0.1,0.2l0.1,0.1c0.1,0.1,0.1,0.1,0.2,0.1l0.2,0.1
			c0,0.4,0,0.8-0.1,1.1c0,0.2-0.1,0.5-0.2,0.7c-0.1-0.1-0.1-0.1-0.2-0.2c0,0,0,0,0,0c-0.1,0-0.1-0.1-0.1-0.1l0,0
			c0,0.1,0,0.1,0.1,0.2c0.1,0.1,0.2,0.1,0.2,0.2c-0.1,0.2-0.1,0.4-0.2,0.5c0,0.1,0,0.1-0.1,0.1l0-0.1c-0.1-0.1-0.1-0.1-0.2,0
			c0.1,0.1,0.1,0.2,0.2,0.2C53,66.9,52.8,67.3,52.5,67.7c0.1-0.1,0-0.2-0.1-0.2l0,0c0,0,0-0.1,0-0.1c0-0.1,0-0.1-0.1-0.1
			c-0.1,0.1,0,0.2,0,0.3c0,0,0,0,0.1,0.1C52.4,67.6,52.5,67.7,52.5,67.7 M50.3,59.6c0.1,0,0.1,0,0.2-0.1l1.6-0.4
			c0.1,0,0.3-0.1,0.3,0c0.1,0,0.2,0,0.3,0l0.1,0l0.1,0c0.1,0,0.1,0,0.1-0.1C52.6,59,52.4,59,52.4,59c-0.1,0-0.2,0-0.2,0
			c-0.1,0-0.2,0-0.4,0.1l-0.8,0.2c-0.2,0-0.4,0.1-0.5,0.1c0-0.1,0.1-0.2,0.1-0.4c0.1-0.3,0.2-0.6,0.3-0.7c0.1-0.2,0.3-0.4,0.4-0.5
			c0.3-0.3,0.7-0.4,1.1-0.3c0.2,0,0.4,0.1,0.5,0.2c0.1,0.1,0.2,0.4,0.3,0.7c0.1,0.4,0.2,0.9,0.3,1.3l-1.3-0.1c-0.3,0-0.6,0-1,0.1
			L50.2,60C50.2,59.9,50.3,59.8,50.3,59.6 M52.4,64.8c0,0.1,0.1,0.1,0.1,0.1l0.1,0.1l0,0c0,0,0,0,0-0.1l0,0l-0.1-0.2l-0.1-0.1
			c0,0,0,0-0.1-0.1c0,0-0.1,0-0.1,0.1C52.3,64.7,52.3,64.7,52.4,64.8L52.4,64.8 M39.2,62.3C39.3,62.2,39.3,62.2,39.2,62.3
			c0-0.1-0.2-0.2-0.3-0.2l0,0l0,0c0,0,0,0,0,0l0,0.1l0.1,0c0,0,0.1,0,0.2,0.1c0,0,0,0,0,0L39.2,62.3 M38.5,63.3
			C38.5,63.4,38.6,63.4,38.5,63.3l0.2,0.1l0.2-0.1c0.1,0,0.1,0,0.1-0.1c0.1,0,0.1-0.1,0.1-0.1c-0.1,0-0.2,0-0.3,0.1
			c-0.1,0-0.1,0-0.2,0c0,0,0,0-0.1-0.1c0,0-0.1,0-0.1,0C38.5,63.3,38.5,63.3,38.5,63.3 M47.5,68c0,0.1,0,0.1-0.1,0.2l0.1,0.1l0,0
			l0,0l0,0l0.1-0.3c0-0.1,0-0.1,0-0.2l0-0.1c0,0,0-0.1,0-0.1c0,0-0.1-0.1-0.1-0.1c0,0.1-0.1,0.1,0,0.2l0,0.1l0,0.1
			C47.5,67.9,47.5,67.9,47.5,68 M46.7,68.9c0.1,0,0.1,0,0.1-0.1l0-0.1l0.1-0.1c0,0,0-0.1,0-0.2l0-0.1c0,0,0,0,0-0.1l0-0.1l0-0.1
			c0,0,0-0.1,0-0.1c0,0,0,0,0,0l0,0.1c0,0.1-0.1,0.2,0,0.3l0,0.1l0,0.2l0,0l0,0.1L46.7,68.9C46.7,68.9,46.7,68.9,46.7,68.9
			 M42.1,65.8L42.1,65.8l0.1-0.2l0.1-0.1l0.1-0.1l0-0.1l0-0.1l0.1-0.1c0,0,0-0.1,0-0.1c0,0-0.1,0-0.1,0c0,0,0,0.1-0.1,0.1L42,65.7
			l-0.1,0.1l0,0C42,65.9,42,65.9,42.1,65.8 M41.9,66.8L41.9,66.8c0.1,0,0.2-0.1,0.3-0.2c0.1-0.1,0.1-0.1,0.1-0.2
			c0.1-0.1,0.1-0.2,0.1-0.4l0-0.1c0,0,0,0,0,0c0,0-0.1,0.1-0.1,0.1c0,0.1-0.1,0.2-0.2,0.3L41.9,66.8 M43.2,69
			C43.2,69,43.3,69,43.2,69c0.1-0.2,0.1-0.3,0.1-0.4c0-0.1,0-0.2,0-0.2l0.1-0.2l0.1-0.1c0,0,0-0.1,0-0.2l0,0.1l-0.2,0.3l-0.1,0.5
			L43.2,69C43.1,69,43.1,69,43.2,69L43.2,69z"/>
		<path class="st1" d="M106.8,63.1c0.3-0.8,0.4-1.7,0.3-2.6c0-0.9-0.2-1.7-0.6-2.5c-0.3-0.7-0.7-1.3-1.3-2c-0.5-0.5-1-1-1.4-1.3
			c-0.6-0.4-1.3-0.7-2.1-0.7c-0.7-0.1-1.5,0-2.2,0.3c-0.7,0.3-1.3,0.7-1.9,1.3c-0.5,0.6-1,1.3-1.2,2.1c-0.1,0.2-0.1,0.3-0.2,0.4
			c-0.1,0.1-0.2,0.3-0.2,0.3c-0.1,0.1-0.2,0.1-0.3,0.2c-0.1,0-0.2,0.1-0.3,0.1c-0.7,0.2-1.4,0.6-2,1.2c-0.5,0.5-0.8,1.1-1,1.7
			c-0.1,0.5-0.1,1,0,1.5c0.1,0.7,0.5,1.4,1.1,2c0.2,0.2,0.4,0.3,0.6,0.5c0,0-0.1,1.1,0,3.2c0,2.1,0,3.2,0.1,3.3
			c0.1,0.1,2.7,1.2,7.7,3.2c0.3-0.3,1.5-2.3,3.7-6.2c0.8-0.1,1.4-0.4,1.9-0.9c0.4-0.4,0.7-0.8,0.9-1.3c0.2-0.5,0.3-1,0.2-1.6
			c-0.1-0.6-0.3-1.1-0.6-1.5C107.7,63.5,107.3,63.2,106.8,63.1 M105.7,62.8c-0.1,0.1-0.2,0.1-0.2,0.2c-0.1,0.1-0.1,0.1-0.1,0.2
			c0,0.1,0,0.2,0,0.3c0.1,0.1,0.2,0.2,0.3,0.2c0.1,0,0.2,0.1,0.3,0.1c0,0-0.1,0.1-0.1,0.1l-0.7,0.2l0,0c0.1,0.1,0.2,0,0.3,0l0.1-0.1
			c0,0,0.1,0,0.2-0.1l0.2-0.1c0,0,0.1,0,0.1-0.1c0.1,0,0.3,0.1,0.4,0.1c-0.1,0-0.1,0.1-0.2,0.1c-0.1,0.1-0.2,0.1-0.2,0.2
			c0,0,0,0.1,0.1,0.1c0,0,0.1,0,0.1,0c0.2-0.1,0.3-0.1,0.3-0.1c0,0,0.1,0,0.1-0.1c0.1,0,0.1,0.1,0.2,0.1c0.4,0.2,0.7,0.5,0.8,0.9
			c0.1,0.4,0.2,0.8,0.1,1.2c-0.1,0.4-0.3,0.7-0.6,1c-0.9,1-1.9,1.3-3,0.8c-0.3-0.1-0.7-0.3-1-0.6c-0.2-0.2-0.4-0.3-0.4-0.4
			c-0.1-0.3-0.1-0.5-0.2-0.7c-0.1-0.3-0.2-0.4-0.3-0.4c-0.1,0-0.2,0-0.3,0.1c-0.1,0.1-0.2,0.2-0.2,0.3c0,0.1-0.1,0.2-0.2,0.4
			c-0.1,0.2-0.1,0.3-0.2,0.4c-0.2,0.3-0.5,0.4-0.8,0.4c0,0,0,0,0,0c0,0-0.1,0-0.1,0c-0.1,0-0.1,0-0.2,0c-0.5-0.1-0.9-0.3-1.2-0.6
			c-0.4-0.3-0.6-0.8-0.7-1.2c0-0.3,0-0.6,0-0.7c-0.1-0.3-0.2-0.5-0.3-0.5c-0.1,0-0.3,0-0.4,0.1c-0.2,0.1-0.3,0.2-0.4,0.3
			c-0.5,0.3-1.1,0.5-1.6,0.3c-0.4-0.1-0.7-0.3-1-0.5c-0.5-0.4-0.8-0.8-1-1.2c-0.2-0.4-0.2-0.7-0.2-1.2c0-0.4,0.1-0.8,0.3-1.2
			c0.2-0.3,0.4-0.6,0.7-0.8c0.3-0.2,0.6-0.4,0.9-0.4c0,0,0,0,0,0c0,0,0.1,0.1,0.1,0.2c0,0.1,0,0.1,0.1,0.1l0.1,0.1l0,0.1l0,0
			l0.1,0.1c0.1,0,0.1,0.1,0.2,0.1c0,0,0,0,0-0.1c0,0,0-0.1,0-0.1c0-0.1-0.1-0.1-0.1-0.1l0,0c-0.1-0.1-0.3-0.2-0.4-0.4c0,0,0,0,0,0
			c0.1,0,0.3,0,0.5-0.1c0,0,0,0,0,0c0,0,0,0,0,0c0.1,0.1,0.1,0.2,0.2,0.2c0.1,0,0.1,0.1,0.1,0.1l0.1,0.1c0,0,0-0.1,0-0.1
			c0,0,0-0.1,0-0.1c0,0,0-0.1-0.1-0.1c-0.1,0-0.2-0.1-0.2-0.1l0,0c0.2-0.1,0.3-0.1,0.4-0.2c0.2-0.1,0.3-0.4,0.4-0.6
			c0.1-0.1,0.2-0.4,0.3-0.9c0.1-0.4,0.3-0.7,0.4-0.8c0.3-0.5,0.8-1,1.6-1.4c0.5-0.3,0.9-0.5,1.2-0.6c0.5-0.1,1.2-0.1,1.9,0.1
			c0.6,0.2,1.2,0.5,1.6,0.8c0.5,0.4,0.9,0.9,1.3,1.6c0.4,0.7,0.7,1.3,0.8,1.8c0.1,0.4,0.1,1,0.1,1.7c0,0.3,0,0.6,0,0.8
			c0,0.3-0.1,0.5-0.3,0.7C105.9,62.6,105.8,62.7,105.7,62.8 M103.2,68.8c-0.4,0.9-0.6,1.6-0.8,1.8c-0.3,0.6-0.8,1.4-1.4,2.5
			l-0.4,0.7c-0.1,0-0.2-0.1-0.4-0.1c-0.2-0.1-0.3-0.1-0.4-0.2c0.1-0.1,1-1.8,2.8-5C102.9,68.6,103,68.7,103.2,68.8 M97.3,66
			c0.1-0.1,0.2-0.2,0.2-0.2c-0.7,3.9-1.1,6.1-1.1,6.3c-0.4-0.1-0.6-0.2-0.7-0.2c0-0.1,0.3-1.9,0.7-5.5c0.1,0,0.1,0,0.2-0.1
			c0.1-0.1,0.2-0.1,0.4-0.2C97.1,66.2,97.1,66.1,97.3,66 M99.2,68.4C99.2,68.4,99.2,68.3,99.2,68.4c0.3,0,0.5,0.1,0.8,0.2
			c0,0-0.3,0.8-0.7,2.3c-0.4,1.5-0.7,2.2-0.7,2.2l-0.7-0.3c0.1-0.3,0.2-1,0.5-2.2c0.1-0.7,0.3-1.2,0.4-1.5
			C99,68.8,99.1,68.6,99.2,68.4 M103.5,60.5L103.5,60.5c-0.1,0-0.2,0-0.2,0c-0.1,0-0.1,0.1-0.1,0.2c0,0,0,0.1-0.1,0.2
			c0,0.1,0,0.1,0,0.1c0,0,0,0.1,0,0.1c0.1,0.1,0.2,0.2,0.4,0.3c0.1,0,0.2,0,0.2,0c0.1,0,0.1-0.1,0.2-0.2c0.1-0.1,0-0.3-0.1-0.4
			C103.8,60.6,103.6,60.5,103.5,60.5 M101.1,61.8c-0.1,0-0.2,0.1-0.3,0.3c-0.1,0.1-0.1,0.3-0.1,0.4c0,0,0,0.1,0.1,0.3
			c0,0.1,0.1,0.2,0.1,0.2c0,0,0.1,0,0.1,0.1l0.5,0.2c0.1,0,0.1,0,0.1,0c0,0,0.1,0,0.1,0c0.1-0.1,0.2-0.2,0.3-0.2
			c0.1-0.1,0.1-0.2,0.1-0.4c0-0.2,0.1-0.3,0-0.5c0-0.1-0.1-0.2-0.3-0.3l0,0.1C101.6,61.7,101.3,61.7,101.1,61.8 M99.2,61.6
			C99.2,61.6,99.2,61.6,99.2,61.6c-0.1,0-0.1,0-0.2,0c0,0,0,0-0.1,0l0,0c0,0,0,0-0.1,0.1c0,0,0,0.1,0,0.1l0,0.1l0.1,0l0.2,0.1
			c0,0,0.1,0,0.1-0.1c0,0,0,0,0.1-0.1l0,0l0-0.1C99.2,61.7,99.2,61.6,99.2,61.6 M99,60.1c0.1-0.1,0.2-0.1,0.2-0.2
			c0-0.1,0.1-0.2,0.1-0.3c0-0.1,0-0.2,0-0.3c0,0-0.1-0.2-0.1-0.3c-0.1-0.2-0.3-0.3-0.4-0.4c0,0-0.1,0-0.1,0c-0.1,0-0.2,0-0.4,0.1
			c-0.1,0-0.2,0.1-0.3,0.2c0,0,0,0.1-0.1,0.3l-0.1,0.3c0,0.1,0,0.3,0.1,0.3c0,0,0.1,0.1,0.2,0.1l0.6,0.2c0.1,0,0.1,0,0.1,0
			C98.9,60.1,98.9,60.1,99,60.1 M102.8,58c0,0,0-0.1,0-0.1c0-0.1,0-0.2-0.1-0.2c-0.1-0.1-0.2-0.2-0.4-0.2l0,0c-0.1,0-0.2,0-0.3,0
			c-0.1,0.1-0.2,0.1-0.2,0.3c0,0.1,0,0.2,0,0.3c0,0,0,0.1,0,0.1l0.1,0l0.3,0.1c0.1,0,0.2,0.1,0.3,0c0,0,0.1-0.1,0.2-0.2L102.8,58z"
			/>
		<path class="st2" d="M146.1,116.3c-0.1-0.5-0.3-1-0.7-1.4l-13.1-16.1c-0.1-0.1-0.2-0.2-0.3-0.3l0.3-0.6c0.5-1,0.9-1.8,1.1-2.4
			c0.3-1,0.2-1.8-0.1-2.5c-0.2-0.5-0.5-0.9-1-1.2c-0.3-0.3-0.8-0.5-1.4-0.8c-9.2-4.8-18.5-8.5-27.9-11.1c-9.8-2.8-19.6-4.3-29.2-4.7
			c-10-0.4-19.8,0.7-29.4,3c-9.9,2.4-19.1,6.3-27.7,11.5c-1,0.6-1.7,1.2-2.2,1.9C14.3,92.3,14,93,14,93.7c0,0.1,0,0.1,0,0.2l0,0.2
			c0,0.2,0.1,0.5,0.2,0.8c0.2,0.7,1.2,2.9,2.9,6.6c-0.5,0.1-0.9,0.3-1.4,0.7l-10.9,8.6c-0.7,0.5-1.3,1.2-1.6,1.8
			c-0.4,0.8-0.5,1.6-0.1,2.2c0.2,0.3,0.5,0.5,0.9,0.7c0.2,0.1,0.6,0.2,1.1,0.3l7.7,1.2c0.7,0.1,1.3,0.3,1.8,0.5
			c0.6,0.3,1.1,0.7,1.3,1.2c0.2,0.4,0.3,0.9,0.3,1.5c0,0.4-0.1,1-0.2,1.6L13,137c-0.1,0.8-0.1,1.5,0,2.1c0.2,0.7,0.5,1.1,1.1,1.1
			c0.2,0,0.4-0.1,0.7-0.3c0.1-0.1,0.3-0.3,0.5-0.6c1.2-1.3,2.7-2.5,4.6-3.6c0.7-0.4,2.4-1.2,5.2-2.5c4.7-2.2,9.2-4.8,13.4-7.8
			c0.8-0.6,1.3-1.3,1.2-1.9c0-0.8-0.6-1.3-1.9-1.7c-2.6-0.8-5.4-1.5-8.2-2.1c5.9-5.2,12.6-9.1,20.2-11.7c7.2-2.5,14.7-3.7,22.5-3.5
			c7.3,0.2,14.8,1.5,22.4,3.9c7,2.3,14.1,5.5,21.2,9.7l-10.1,1.9c-0.4,0.1-0.8,0.2-1,0.5c-0.3,0.3-0.5,0.6-0.4,1
			c0.1,0.3,0.3,0.5,0.7,0.8l25.7,17.9c0.9-7.7,0.9-15.3,0.2-23c3.3,0.1,8.3,0.2,15,0.3C146.1,117.3,146.2,116.9,146.1,116.3
			 M112.4,121.9l-0.2-0.2c0.6-0.1,1.4-0.2,2.2-0.3c0.1,0,0.3,0,0.4-0.1c0.2,0.1,0.5,0.2,0.9,0.4c0.6,0.4,1,0.7,1.2,0.8
			c0.2,0.1,0.4,0.3,0.8,0.6c0.3,0.2,0.6,0.4,0.8,0.5c-0.8-1.1-1.8-1.8-2.9-2.4c1.6-0.2,2.8-0.4,3.5-0.5c0.4-0.1,2.5-3.4,6.2-9.9
			c1.8-3.3,3.6-6.6,5.4-9.8l11.4,13.8c-5.3-0.2-9.3-0.4-11.9-0.5c-0.8,0-1.4,0.1-1.7,0.4c-0.5,0.5-0.7,1.5-0.4,3
			c1,5.9,1.2,11.8,0.5,17.7c-6.3-4-12.6-8.5-18.9-13.5c0.5-0.1,1.2-0.2,2.1-0.3c0.6,0.5,1.1,0.9,1.7,1.2c0.4,0.2,0.7,0.4,0.9,0.6
			c0.1,0.1,0.4,0.3,0.6,0.5c0.3,0.2,0.7,0.5,1.3,0.8l0.9,0.4c0.7,0.3,1.3,0.6,1.9,0.8c0-0.1-0.1-0.2-0.2-0.3l-2.3-1.2
			c-0.6-0.4-1-0.6-1.1-0.7c-0.5-0.4-0.8-0.6-1-0.8C113.4,122.6,112.8,122.2,112.4,121.9 M119,117.2l-0.5-0.4
			c-7.5-4.6-15.1-8.2-22.7-10.7c-8.2-2.7-16.2-4.1-24-4.2c-8.4-0.1-16.4,1.3-24.1,4.1c-7.7,2.9-14.6,7-20.5,12.5
			c-0.2-0.2-0.3-0.4-0.3-0.4c0-0.1-0.1-0.4-0.3-1.1c-0.1-0.6-0.3-1.3-0.5-2c-0.1-0.4-0.4-1-0.7-1.9c-0.4-1-1.1-2.5-2-4.5l-6.1-12.5
			c-0.2-0.4-0.4-0.9-0.6-1.3c-0.1-0.4-0.2-0.7-0.3-0.9c-0.1-0.3-0.2-0.6-0.3-0.7c8.1-5.1,16.8-9,26.2-11.6
			c9.7-2.7,19.7-3.9,30.1-3.7c9.8,0.2,19.8,1.8,29.9,4.6c9.6,2.7,19.1,6.5,28.6,11.5c-1,3-3.2,7.7-6.8,14.1
			C120.7,114,119.1,117,119,117.2 M18,103.4c0.1,0.3,0.3,0.7,0.5,1.1c0.1,0.2,0.4,0.6,0.6,1c0.3,0.4,1,2.1,2.3,5
			c1.3,3.1,2.1,5,2.3,5.7c0.1,0.3,0.2,0.8,0.3,1.5l0.3,1.7c0.1,0.4,0.2,0.8,0.3,1c0.2,0.4,0.5,0.7,1,0.8c0.1,0,0.2,0,0.2,0.1
			c0.2,0.3,0.6,0.5,1.2,0.6c0.9,0.2,2,0.5,3.3,0.9l-0.3,0.2l-0.4,0.4c-0.3,0.1-0.5,0.2-0.6,0.3l-1.7,0.9c0.1,0.1,0.2,0.2,0.4,0.1
			c0.3-0.1,0.7-0.3,1.2-0.6l1.3-0.6c0.1-0.1,0.2-0.2,0.4-0.3c0.1-0.1,0.2-0.2,0.3-0.3c0.6,0.2,1.3,0.4,2,0.6c-0.4,0.2-1.1,0.6-2,1.1
			l-1.2,0.7c-0.4,0.2-0.8,0.4-1,0.6l-0.8,0.6c-0.6,0.3-1,0.5-1.2,0.7c-0.3,0.2-0.8,0.5-1.5,1c0,0.1,0.1,0.1,0.2,0.1l0.6-0.3
			c0.6-0.4,0.9-0.6,1-0.6c0.2-0.1,0.4-0.2,0.7-0.3c0.1-0.1,0.4-0.3,0.8-0.6c0.3-0.2,0.7-0.5,1.3-0.8l1.4-0.8c0.6-0.3,1-0.5,1.3-0.6
			c0.2-0.1,0.4-0.2,0.8-0.3c0.1-0.1,0.2-0.1,0.3-0.1c0.5,0.1,1.1,0.3,1.6,0.5c-6.2,3.9-12.7,7.4-19.5,10.5l2.9-15
			c0.1-0.7,0.2-1.3,0.2-1.6c0-0.6-0.1-1.1-0.3-1.6c-0.2-0.4-0.6-0.7-1-1c-0.3-0.2-0.7-0.3-1.3-0.5c-3.3-1-6.6-1.7-10.1-2.1
			C10.3,109.9,14.2,106.7,18,103.4z"/>
		<g>
			<path id="SVGID_x5F_1_x5F_" class="st3" d="M16.1,105.6c0,0,47.6-20.3,100.5-3.5"/>
			<text>			<textPath  xlink:href="#SVGID_x5F_1_x5F_" startOffset="26.546%">
<tspan  style="font-family:'FrenchScriptMT'; font-size:15px;">Sugarfield</tspan>			</textPath>
</text>
		</g>
		<text transform="matrix(0.7894 0 0 1 62.5653 133.65)" class="st2 st4 st5">Richa</text>
		<path class="st6" d="M109,133.5c-0.4-0.9-1.6-0.1-1.1,0.8c2.5,5.1-3,9-6.7,9c-4.3,0-8.6-1.8-12.8-2.6c-3.9-0.7-8-1.4-12-1.2
			c-0.9,0-1.9,0.2-2.9,0.6c-3.5-2-9.7-1.2-12.2-0.9c-4.6,0.7-9,2-13.6,2.6c-2.4,0.3-5,0.6-7.3-0.1c-2.7-0.8-5.5-3.9-4-7.4
			c0.4-0.9-0.7-1.6-1.1-0.8c-1,2.2-0.7,4.7,0.6,6.7c1.7,2.6,4.5,3.3,7.1,3.4c7.4,0.3,14.5-2.9,21.8-3.2c1.4-0.1,4.6-0.1,7,0.7
			c-0.6,0.5-1,1.2-1.3,2.2c-0.5,1.9,0.1,4.5,1.8,5.1c1.9,0.7,3.4-1.3,3.6-3.3c0.1-1.7-0.3-2.9-1.1-3.8c1.2-0.3,2.4-0.2,3.5-0.1
			c4.2,0.2,8.4,0.8,12.5,1.7c3.4,0.7,6.8,2.1,10.2,2c2.7,0,5.3-1,7.1-3.6C109.8,139,110.3,136.1,109,133.5z M74.6,145.6
			c-0.6,1.9-2.3,1.4-2.7-0.2c-0.3-1.2,0.2-2.5,1-3.2c0.2-0.2,0.4-0.3,0.5-0.4C74.5,142.6,75.2,143.8,74.6,145.6z"/>
		<g>
			<g>
				<path class="st6" d="M46.5,52.2c-0.3-2.2-0.6-4.4-0.8-6.6c-0.1-1-1.4-0.6-1.3,0.4c0.3,2.2,0.6,4.4,0.8,6.6
					C45.4,53.6,46.6,53.2,46.5,52.2z"/>
				<path class="st6" d="M37.2,46.3c-0.5-0.8-1.5,0.3-0.9,1.1c1.3,1.9,2.6,3.8,3.9,5.6c0.5,0.8,1.5-0.3,0.9-1.1
					C39.8,50,38.5,48.2,37.2,46.3z"/>
				<path class="st6" d="M26,55c2.1,1,4.1,2.4,5.9,3.9c0.7,0.6,1.3-0.7,0.7-1.3c-1.8-1.6-3.8-2.9-5.9-3.9C25.9,53.3,25.2,54.6,26,55
					z"/>
				<path class="st6" d="M32.4,67.3c-2.2-0.3-4.4-0.6-6.6-0.9c-0.8-0.1-0.8,1.4,0,1.5c2.2,0.3,4.4,0.6,6.6,0.9
					C33.3,69,33.3,67.4,32.4,67.3z"/>
				<path class="st6" d="M34,74.2c-2,0.8-4.1,1.7-6.1,2.5c-0.8,0.3-0.5,1.8,0.3,1.5c2-0.8,4.1-1.7,6.1-2.5
					C35.2,75.4,34.8,73.9,34,74.2z"/>
			</g>
		</g>
		<g>
			<g>
				<path class="st6" d="M112,46.3c0.6-0.7-0.3-1.7-0.9-1.1c-1.6,1.7-2.9,3.6-4,5.8c-0.4,0.8,0.7,1.6,1.1,0.8
					C109.2,49.7,110.5,47.9,112,46.3z"/>
				<path class="st6" d="M116.4,53.6c-1.6,1-3.2,2-4.8,3.1c-0.7,0.5-0.1,1.8,0.7,1.3c1.6-1,3.2-2,4.8-3.1
					C117.8,54.5,117.1,53.1,116.4,53.6z"/>
				<path class="st6" d="M115.9,64.8c-1.6,0.2-3.2,0.4-4.8,0.6c-0.8,0.1-0.8,1.6,0,1.5c1.6-0.2,3.2-0.4,4.8-0.6
					C116.7,66.3,116.7,64.7,115.9,64.8z"/>
				<path class="st6" d="M114.7,74.2c-1.5-0.5-2.9-1-4.4-1.5c-0.8-0.3-1.2,1.2-0.3,1.5c1.5,0.5,2.9,1,4.4,1.5
					C115.2,76,115.5,74.5,114.7,74.2z"/>
			</g>
		</g>
		<g class="st7">
			<path class="st8" d="M24.2,104.7c1.8-0.9,3.6-1.8,5.4-2.7c0.8-0.4,0.2-1.8-0.6-1.4c-1.8,0.9-3.6,1.8-5.4,2.7
				C22.8,103.7,23.4,105.1,24.2,104.7z"/>
			<path class="st8" d="M30.7,103c-2.3,1-4.6,2-6.9,3.3c-0.8,0.4-0.2,1.8,0.6,1.4c2.2-1.2,4.5-2.3,6.9-3.3
				C32,104,31.5,102.6,30.7,103z"/>
		</g>
		<g class="st7">
			<path class="st8" d="M118,103.7c-1.3-0.7-2.6-1.4-3.9-2.1c-0.8-0.4-1.4,0.9-0.7,1.3c1.3,0.7,2.6,1.4,3.9,2.1
				C118.1,105.4,118.7,104.1,118,103.7z"/>
			<path class="st8" d="M119.7,101.7c-1.5-0.8-2.9-1.7-4.4-2.5c-0.8-0.4-1.4,0.9-0.7,1.3c1.5,0.8,2.9,1.7,4.4,2.5
				C119.8,103.5,120.5,102.2,119.7,101.7z"/>
			<g>
			</g>
		</g>
		<g>
			<path class="st2" d="M103.2,17.6c-5.6-1.2-10.5,2-14.4,6.2c0.5-5.3,0.2-10.7-2.6-15.1c-2.8-4.4-7.9-6.6-12.5-5.9
				c-8.4,1.3-12.6,11.9-10,20.5C57,20.5,48,25.3,46.7,34c-1.8,12.1,11.7,13.3,19.1,13.5c-0.5,3.8-2,7.2-2.9,10.8
				c-0.1,0.1-0.1,0.3-0.1,0.4c-0.3,1.2-0.5,2.4-0.7,3.7c-0.1,0.2-0.1,0.4,0,0.7c0,0.3,0.1,0.5,0.2,0.6c2.7,7.9,9.8,9.1,16,5.8
				c2.5-1.3,5.3-2.9,5.9-6.4c0.5-2.7-0.2-5.6-0.4-8.3c-0.2-2.5-0.5-4.9-0.7-7.4c6.4,1.8,13.4,3.4,19.5-0.1c5.3-3,9-9.6,9.3-16.4
				C112.1,24.4,108.9,18.8,103.2,17.6z M80.2,65.6c-4.6,4.6-12.8,4.8-15.7-1.9c0.9-0.7,1.8-1.3,2.8-1.7c3.3,3.4,8.8,4.9,11.6,0.1
				c0.9,0.4,1.7,1,2.5,1.6C81.2,64.3,80.8,65,80.2,65.6z M82.1,61.1c-5.4-3.9-12.2-4-17.7-0.3c0.1-0.8,0.3-1.5,0.5-2.3
				c4.2-2.9,9-3.8,13.8-2.4c0.8,0.2,1.2-1.2,0.3-1.5c-4.6-1.3-9.4-0.6-13.5,1.8c0.9-2.9,2-5.8,2.4-8.9c4-2.2,8.7-2.8,12.9-0.8
				c0.3,2.7,0.5,5.5,0.8,8.2C81.8,57,82.2,59.1,82.1,61.1z M109.2,34.2c-1.3,6-5.6,10.8-10.8,12.2C93,48,87.3,46.2,82.1,44.7
				c0,0-0.1,0-0.1-0.1c3.6-2.4,6.2-6.5,7-11.4c0.2-1-1.1-1.4-1.3-0.4c-0.8,4.9-3.5,9-7.4,11c-3.2-1.2-6.5-1.1-9.7-0.2
				c-0.1-0.1-0.3-0.2-0.5-0.2c0,0,0,0,0,0c-0.1-0.1-0.2-0.2-0.3-0.3c-4.7-1.5-6.2-7.2-6.2-12.3c0-1-1.3-1-1.3,0
				c0,5.6,1.7,11.5,6.5,13.5c-0.5,0.2-1,0.4-1.5,0.7c-0.1,0-0.2-0.1-0.3-0.1C61.4,45,51.4,45.7,49.1,38
				c-2.9-10.1,10.6-16.6,16.5-10.5c0.9,0.9,2.5-0.3,1.7-1.5C62.4,18.3,65.8,6,74.6,5.2c3.5-0.3,7.3,1.3,9.6,4.4
				c3.5,4.7,3,11.6,2.2,17.3c-0.2,1.1,1,2.2,1.8,1.2c3.5-4.4,7.9-8.8,13.4-8.4C108.1,20.3,110.7,27.4,109.2,34.2z"/>
			<path class="st2" d="M77.3,28.4c0.5,3.2,0.1,6.2-1.3,9c-0.4,0.9,0.7,1.6,1.1,0.8c1.5-3.2,2-6.7,1.4-10.2
				C78.4,27,77.2,27.4,77.3,28.4z"/>
		</g>
		<g>
			<g>
				<path class="st1" d="M98.4,124.5c0.3-0.2,0.6-0.5,0.8-0.9c0-0.1,0.1-0.1,0.1-0.2c0.2-0.3,0.3-0.6,0.4-1c0.1-0.4,0.1-0.8,0.1-1.1
					c0,0,0,0,0,0c0-0.7-0.2-1.3-0.5-1.9c-0.3-0.7-0.8-1.3-1.4-1.7c-0.7-0.6-1.5-0.9-2.4-0.9c-0.5,0-1.1,0.1-1.8,0.3
					c-0.4,0.1-1,0.4-1.8,0.7c-1.4,0.5-2.8,0.7-4.2,0.7c-2.8,0-5.4,0-7.6,0c-1.9,0-2.9,0-2.9,0.1c0,1.1,0,1.7,0,1.7
					c0,0.1,3.6,0.2,10.6,0.3c0.4,0.1,0.7,0.1,0.9,0.1c0.3,0.1,0.6,0.2,0.8,0.3c0.2,0.1,0.4,0.2,0.7,0.4c0,0,0.2,0.2,0.7,0.5
					c0.3,0.2,0.8,0.6,1.4,1c0.6,0.4,1,0.7,1.2,0.8c0.5,0.3,0.9,0.5,1.3,0.7c1,0.4,1.8,0.6,2.6,0.5C97.8,124.8,98.1,124.7,98.4,124.5
					 M98.5,124.1C98.5,124.1,98.5,124.1,98.5,124.1c-0.2,0.2-0.5,0.3-0.8,0.4c-0.8,0.2-1.6,0.1-2.6-0.4c-0.4-0.2-0.8-0.4-1.2-0.6
					c-0.3-0.2-0.7-0.4-1.2-0.8c-0.5-0.4-0.9-0.6-1-0.7c0,0-0.2-0.2-0.6-0.5c-0.3-0.2-0.5-0.4-0.7-0.5c-0.5-0.3-1.1-0.6-1.7-0.7
					c-0.7-0.1-1-0.2-1-0.2l0-0.2c1.2,0.2,2.2,0.5,3,0.8c1.1,0.4,2.1,0.9,3,1.4c0.5,0.4,0.9,0.6,1.1,0.8c0.4,0.3,1,0.5,1.7,0.8
					c0.5,0.2,0.8,0.3,1.1,0.4C97.9,124.2,98.2,124.2,98.5,124.1 M99.2,123.1c-0.1,0.2-0.2,0.3-0.2,0.4c-0.1,0.1-0.1,0.1-0.2,0.2
					c-0.3,0.2-0.6,0.3-1,0.3c-0.2,0-0.6-0.1-1-0.3c-0.9-0.4-1.7-0.8-2.4-1.2c-0.2-0.1-0.5-0.4-1-0.7c-0.8-0.5-1.5-0.9-2.4-1.2
					c-0.8-0.3-1.6-0.5-2.2-0.6c-0.6-0.1-1.1-0.2-1.3-0.3l0-0.1c0.7,0.1,1.5,0.3,2.2,0.4c0.7,0.2,1.2,0.3,1.6,0.4
					c0.2,0.1,0.9,0.3,2.2,0.9c0.9,0.4,1.6,0.6,2.2,0.7c0.3,0.1,0.8,0.1,1.5,0.1c0.5,0,0.9,0,1.1,0c0.4,0,0.8-0.1,1.1-0.3
					c0,0,0,0,0,0C99.6,122.3,99.4,122.7,99.2,123.1 M99.5,121.7c-0.4,0.2-0.8,0.2-1.3,0.3c-0.3,0-0.8,0-1.3-0.1
					c-0.5,0-0.8-0.1-1.1-0.1c-0.6-0.1-1.4-0.3-2.3-0.7c-1.2-0.5-1.9-0.8-2.3-0.9c-0.8-0.2-2-0.5-3.5-0.6l0-0.2
					c0.5,0.2,1,0.3,1.6,0.3c0.4,0,1,0,1.8,0c0.8,0,1.5-0.1,2-0.2c0.6-0.1,1-0.2,1.2-0.2c0.9-0.1,1.8,0,2.7,0.3
					c0.9,0.3,1.7,0.9,2.5,1.6c0.1,0.1,0.1,0.1,0.1,0.2c0,0.1,0,0.1,0,0.2C99.7,121.6,99.6,121.7,99.5,121.7 M99.6,120.9
					c-0.2-0.1-0.4-0.4-0.7-0.6c-0.4-0.3-0.7-0.5-0.9-0.6c-0.8-0.5-1.8-0.7-3-0.6c-0.4,0-0.9,0.1-1.5,0.2c-0.8,0.1-1.6,0.2-2.5,0.3
					c-0.9,0.1-1.9,0-3.2-0.3l0-0.2c1,0.2,2.1,0.3,3.3,0c0.5-0.1,1-0.2,1.7-0.4c0,0,0.6-0.2,1.7-0.5c0.4-0.1,0.7-0.2,0.9-0.2
					c0.5,0,1,0.1,1.7,0.3c0.6,0.2,1.1,0.4,1.4,0.7c0.5,0.4,0.9,0.8,1.1,1.3c0.1,0.2,0.2,0.5,0.2,0.8l0,0
					C99.7,121,99.6,120.9,99.6,120.9 M99.2,119.3c0.1,0.1,0.1,0.3,0.2,0.4c-0.2-0.3-0.4-0.5-0.6-0.7c-0.5-0.4-1.2-0.8-2-1
					c-0.5-0.2-0.9-0.2-1.2-0.2c-0.3,0-0.5,0.1-0.9,0.1c-0.4,0.1-0.9,0.3-1.7,0.5c-0.7,0.2-1.3,0.4-1.7,0.5c-1,0.2-1.8,0.3-2.4,0.2
					c-0.6-0.1-1-0.1-1.1-0.2l0-0.2c0.7,0,1.3-0.1,1.9-0.1c0.8-0.1,1.6-0.3,2.3-0.5c0.8-0.3,1.5-0.6,1.9-0.7c0.7-0.3,1.4-0.4,1.9-0.3
					c0.8,0,1.6,0.4,2.3,0.9C98.5,118.3,98.9,118.7,99.2,119.3 M87.5,119.1l0,0.5c-3.3-0.2-6.6-0.4-10-0.4c0,0,0-0.1,0-0.2
					c0-0.1,0-0.1,0-0.1c0.5,0,2.3,0,5.4,0.1C85.8,119.1,87.4,119.1,87.5,119.1z"/>
				<path class="st3" d="M87.5,119.7l0-0.5c-0.1,0-1.6,0-4.6-0.1c-3.1-0.1-4.9-0.1-5.4-0.1c0,0,0,0.1,0,0.1c0,0.1,0,0.1,0,0.2
					C80.9,119.3,84.2,119.4,87.5,119.7z"/>
			</g>
			<g>
				<path class="st1" d="M66.5,119.9c0.1-0.2,0.1-0.5,0.1-0.7c0-0.4-0.3-0.8-0.7-1.1c-0.2-0.1-0.3-0.3-0.5-0.3
					c-0.2-0.1-0.3-0.1-0.5,0c-0.4,0.1-0.7,0.2-0.9,0.4c-0.1,0.1-0.3,0.3-0.5,0.5c-0.2,0.1-0.4,0.2-0.6,0.3c-0.2,0-0.4,0-0.5-0.1
					c0,0-0.1,0-0.1-0.1c0-0.1-0.1-0.1-0.1-0.2c-0.1-0.2-0.3-0.6-0.6-1c-0.2-0.3-0.4-0.5-0.6-0.6c-0.1,0-2.9,0-8.3,0.1
					c-5.4,0.1-8.2,0.2-8.2,0.3c-0.2,0.1-0.3,0.4-0.3,0.8c0,0.3,0,0.5,0,0.8c-0.1,0.1-0.2,0.2-0.2,0.2c-0.1,0.1-0.3,0.1-0.4,0.1
					l-0.3-0.1c-0.4-0.2-0.7-0.3-1-0.5c-0.2-0.1-0.4-0.2-0.5-0.3c-0.1,0-0.2-0.1-0.4-0.1c-0.3-0.1-0.5-0.1-0.6-0.1
					c-0.2,0-0.4,0.2-0.6,0.4c-0.1,0.2-0.2,0.5-0.2,0.8c0,0.2,0.1,0.4,0.2,0.6c0.1,0.3,0.3,0.6,0.5,0.8c0.2,0.2,0.5,0.3,0.7,0.4
					c0.2,0,0.5,0,0.9-0.2c0.4-0.2,0.7-0.4,0.9-0.5c0.1-0.1,0.2-0.2,0.3-0.3c0.1-0.1,0.2-0.2,0.3-0.2c0.1,0,0.2,0,0.4,0
					c0.1,0,0.2,0.1,0.3,0.1c0.1,0.3,0.2,0.7,0.4,1c0.2,0.3,0.3,0.5,0.5,0.6c0.1,0.1,0.3,0.1,0.5,0.1l15.3-0.1c0.3,0,0.5,0,0.6-0.1
					c0.1-0.1,0.2-0.3,0.4-0.6c0.1-0.3,0.2-0.7,0.2-0.9c0.1-0.1,0.2-0.1,0.3-0.2c0.1-0.1,0.2-0.1,0.3-0.1c0.1,0,0.2,0,0.4,0.1
					l0.4,0.1c0.1,0,0.3,0.2,0.7,0.3c0.3,0.1,0.5,0.2,0.7,0.3c0.2,0,0.4,0,0.6-0.1C66.3,120.3,66.4,120.1,66.5,119.9 M60.7,117.8
					c0.1,0.1,0.1,0.3,0.1,0.4c-0.7,0.1-3.5,0.1-8.4,0c-2.5,0-5.1-0.1-8-0.2c-0.1-0.2-0.1-0.3-0.1-0.3c2-0.2,5-0.3,9.1-0.2
					c3.7,0.1,6,0,6.9-0.2C60.5,117.5,60.6,117.6,60.7,117.8z"/>
				<path class="st1" d="M61.4,118.4c0-0.2-0.1-0.3-0.1-0.4c-0.1-0.1-0.2-0.2-0.3-0.3c-0.9,0.2-3.3,0.3-6.9,0.2
					c-4.1-0.1-7.1,0-9.1,0.2c-0.1,0,0,0.1,0.1,0.3c2.9,0.1,5.5,0.1,8,0.2C57.9,118.6,60.7,118.5,61.4,118.4z"/>
			</g>
			<text transform="matrix(0.8576 0 0 1 69.3026 120.4811)" class="st2 st4 st9">by</text>
		</g>
	</g>
</g>
<g>
	<path class="st10" d="M24.8,101.9c1.6-0.7,3.2-1.4,4.7-2.2c0.7-0.3,0.2-1.4-0.5-1.1c-1.6,0.7-3.2,1.4-4.7,2.2
		C23.6,101.1,24.2,102.2,24.8,101.9z"/>
	<path class="st10" d="M31.9,100.3c-2.5,0.8-5,1.8-7.4,2.8c-0.8,0.4-0.2,1.5,0.6,1.2c2.4-1,4.9-2,7.4-2.8
		C33.4,101.2,32.8,100,31.9,100.3z"/>
</g>
<g>
	<path class="st10" d="M119,102.7c-1.7-0.8-3.4-1.6-5.1-2.4c-1-0.5-1.9,1.1-0.9,1.5c1.7,0.8,3.4,1.6,5.1,2.4
		C119.2,104.7,120,103.2,119,102.7z"/>
	<path class="st10" d="M120.2,100.6c-1.2-0.9-2.5-1.8-3.7-2.6c-0.6-0.5-1.2,0.9-0.6,1.4c1.2,0.9,2.5,1.8,3.7,2.6
		C120.2,102.4,120.8,101,120.2,100.6z"/>
</g>
</svg>
